<svg xmlns="http://www.w3.org/2000/svg" width="234.946" height="164.171" viewBox="0 0 234.946 164.171">
  <g id="undraw_before_dawn_re_hp4m" transform="translate(0.002)">
    <path id="Path_53" data-name="Path 53" d="M303.276,162.39a93.512,93.512,0,0,1-7.661-53.672c.738-4.734,1.935-9.6,5.007-13.279,2.949-3.531,8.065-5.61,12.3-3.954-2.781-6.069-9.789-9.53-16.517-9.7-6.987-.176-13.716,2.562-19.932,5.759s-12.226,6.93-18.9,9.016c-10.965,3.427-22.937,2.119-33.92-1.248s-21.238-8.7-31.69-13.468-21.35-9.024-32.8-10.024-23.621,1.617-32.227,9.225S114.263,101.8,119.1,112.221c2.921,6.292,8.653,11.133,10.666,17.77,2.525,8.331-1.451,17.208-6.233,24.482s-10.617,14.261-12.394,22.783c-1.642,7.866.557,15.991,4.929,22.828a40.447,40.447,0,0,0,7.325,8.528c8.832,7.77,20.244,11.918,31.6,14.988a223.886,223.886,0,0,0,125.792-2.845c7.171-2.291,14.337-5.007,20.356-9.526a31.984,31.984,0,0,0,9.508-11.139,23.387,23.387,0,0,0,2.281-7.415C314.29,182,307.84,172.135,303.276,162.39Z" transform="translate(-93.431 -67.083)" fill="#1cc5aa"/>
    <g id="Group_6" data-name="Group 6" transform="translate(49.838 31.684)" opacity="0.17">
      <path id="Path_54" data-name="Path 54" d="M397.235,212.769c1.976-.862-2.031-1.363-6.578-1.528s-10.047-.156-12.953-.625c-2.81-.454-2.6-1.26-2.84-1.991s-1.317-1.48-5.7-1.643c-5.464-.2-14.475.577-18.6.109-3.849-.437-1.561-1.806-7.174-1.858-3.205-.03-7.334.422-10.9.531a39.734,39.734,0,0,1-7.564-.394c-1.738-.285-2.949-.646-4.905-.9-5.136-.66-15.185-.438-24.155.408s-16.658,2.234-20.993,3.608-5.534,2.727-4.524,3.874c.645.733,2.3,1.417,6.3,1.712,7.488.551,20.82-.4,28.558.1,4.313.279,6.226.971,10.01,1.35,4.065.407,10.016.428,15.863.419,12.174-.02,24.659-.145,37.39-.375,5.318-.1,10.889-.22,16.548-.677s11.43-1.338,12.623-2.163" transform="translate(-270.011 -204.086)" fill="#fff"/>
    </g>
    <path id="Path_55" data-name="Path 55" d="M1098.083,169.273c-.094-.242-.2-.482-.3-.715.172.068.344.141.515.221Z" transform="translate(-878.285 -144.156)" fill="#1cc5aa"/>
    <path id="Path_56" data-name="Path 56" d="M487.623,289.419c-1.572-2.6-3.434-5.376-6.352-6.224-3.378-.983-6.848.97-9.792,2.9A285.329,285.329,0,0,0,446.087,304.8l.009.1,18.948-1.307c4.563-.315,9.284-.673,13.316-2.832,1.53-.819,3.022-1.913,4.756-1.99,2.154-.095,4.033,1.41,5.509,2.982,8.733,9.3,11.26,23.52,21.057,31.689a310.908,310.908,0,0,0-22.06-44.026Z" transform="translate(-360.162 -235.088)" fill="#f2f2f2"/>
    <path id="Path_57" data-name="Path 57" d="M459.959,344.755c-.966-1.219-1.36-1.5-2.313-2.736q-11.634-15.047-21.87-31.111Q428.823,300,422.56,288.67q-2.982-5.386-5.8-10.856-2.187-4.242-4.276-8.534c-.4-.817-.785-1.638-1.171-2.461-.908-1.935-1.8-3.88-2.754-5.789a15.925,15.925,0,0,0-4.417-5.918A6.027,6.027,0,0,0,401,253.9a8.758,8.758,0,0,0-4.545,1.3,146.308,146.308,0,0,0-28.77,19.839,149.781,149.781,0,0,0-23.374,25.946c-.207.3-.7.013-.487-.284q1.232-1.742,2.512-3.446a150.6,150.6,0,0,1,38.45-35.864q3.74-2.424,7.621-4.62c1.3-.738,2.614-1.467,3.946-2.151a9.613,9.613,0,0,1,4.184-1.3c5.077-.079,7.705,5.671,9.511,9.539q.851,1.826,1.723,3.641,3.295,6.891,6.843,13.656,2.19,4.177,4.476,8.3,7.114,12.854,15.121,25.189c7.072,10.892,14.088,20.514,22.145,30.7C460.579,344.639,460.183,345.041,459.959,344.755Z" transform="translate(-278.82 -211.551)" fill="#e4e4e4"/>
    <path id="Path_58" data-name="Path 58" d="M281.116,309.337c-.295-.329-.588-.658-.885-.986-2.341-2.589-4.853-5.148-8.068-6.633a11.706,11.706,0,0,0-4.9-1.137,13.994,13.994,0,0,0-5.092,1.11c-.767.306-1.516.654-2.255,1.024-.844.425-1.672.877-2.5,1.334q-2.322,1.285-4.584,2.683-4.5,2.782-8.72,5.988-2.187,1.663-4.284,3.435-1.95,1.646-3.822,3.38c-.267.246-.665-.152-.4-.4.329-.306.661-.611.994-.911q1.409-1.274,2.864-2.5,2.652-2.238,5.441-4.3,4.338-3.213,8.974-5.99,2.317-1.387,4.7-2.657c.479-.256.964-.505,1.454-.742a23.185,23.185,0,0,1,3.457-1.407,12.3,12.3,0,0,1,5.221-.513,13.593,13.593,0,0,1,4.818,1.667c3.156,1.764,5.6,4.492,7.987,7.155C281.755,309.208,281.359,309.608,281.116,309.337Z" transform="translate(-192.751 -248.683)" fill="#e4e4e4"/>
    <path id="Path_59" data-name="Path 59" d="M772.227,452.23l7.564-2.766,3.755-1.374a38.4,38.4,0,0,1,3.708-1.277,5.849,5.849,0,0,1,3.356.043,7.734,7.734,0,0,1,2.617,1.623,21.233,21.233,0,0,1,2.147,2.293c.818.983,1.623,1.976,2.432,2.965q5.009,6.126,9.953,12.306t9.821,12.411q4.89,6.247,9.712,12.547l1.18,1.544c.217.285.707,0,.487-.284q-4.858-6.363-9.784-12.673-4.938-6.326-9.944-12.6T799.153,454.5q-1.264-1.549-2.532-3.095c-.713-.869-1.418-1.748-2.2-2.557a7.931,7.931,0,0,0-5.377-2.833,10.378,10.378,0,0,0-3.657.8c-1.265.457-2.526.923-3.789,1.385l-7.617,2.786-1.9.7C771.739,451.81,771.885,452.355,772.227,452.23Z" transform="translate(-619.185 -364.745)" fill="#e4e4e4"/>
    <path id="Path_60" data-name="Path 60" d="M361.746,319.268a12.211,12.211,0,0,0-12.3.879,175.417,175.417,0,0,1,19.957,4.658C366.682,323.21,364.552,320.711,361.746,319.268Z" transform="translate(-283.329 -262.975)" fill="#f2f2f2"/>
    <path id="Path_61" data-name="Path 61" d="M346.392,328.415l-.74.6c.25-.21.51-.408.778-.595Z" transform="translate(-280.312 -271.25)" fill="#f2f2f2"/>
    <path id="Path_62" data-name="Path 62" d="M860.26,467.852a6.3,6.3,0,0,0-2.663-2.223l-1.04.041a117.941,117.941,0,0,0,31.413,35.913Z" transform="translate(-686.503 -380.34)" fill="#f2f2f2"/>
    <path id="Path_63" data-name="Path 63" d="M331.878,664.979a31.984,31.984,0,0,1-9.508,11.139c-6.02,4.519-13.185,7.235-20.356,9.526a223.887,223.887,0,0,1-125.792,2.845c-11.355-3.07-22.767-7.219-31.6-14.989a40.445,40.445,0,0,1-7.325-8.528c11.754-6.46,26-8.9,39.6-8.6,19.489.426,38.524,5.628,57.83,8.319a226,226,0,0,0,68.464-.943c7.854-1.318,15.982-3.042,23.67-.955a19.5,19.5,0,0,1,5.019,2.183Z" transform="translate(-114.662 -531.973)" fill="#3f3d56"/>
    <circle id="Ellipse_19" data-name="Ellipse 19" cx="10.453" cy="10.453" r="10.453" transform="translate(26.298)" fill="#ccc"/>
    <path id="Path_64" data-name="Path 64" d="M230.3,67.259a26.626,26.626,0,0,0-9.782-6.948,15.723,15.723,0,0,0-3.276-.823c-.009,0-.018,0-.026,0a.483.483,0,0,0-.055-.011,12.613,12.613,0,0,0-4.681.283,12.933,12.933,0,0,0-2.18.759,19.06,19.06,0,0,0-2.045,1.159,13.3,13.3,0,0,1-4.52,1.686,15.2,15.2,0,0,1-2.428.238,5.864,5.864,0,0,0-2.042.294,4.9,4.9,0,0,0-2.985,3.232.318.318,0,0,0,.141.347c.181.13.358.277.548.392a1.709,1.709,0,0,0,.535.146q.454.1.909.186,1.676.332,3.365.588,3.419.518,6.875.729a76.546,76.546,0,0,0,13.837-.416,76.81,76.81,0,0,0,7.677-1.328.31.31,0,0,0,.136-.514Z" transform="translate(-161.544 -57.351)" fill="#f0f0f0"/>
    <path id="Path_65" data-name="Path 65" d="M114.516,128.311a15.724,15.724,0,0,0-3.276-.823c-.009,0-.018,0-.026,0a.483.483,0,0,0-.055-.011,12.613,12.613,0,0,0-4.681.283,12.933,12.933,0,0,0-2.18.759,19.061,19.061,0,0,0-2.045,1.159,13.3,13.3,0,0,1-4.52,1.686,15.2,15.2,0,0,1-2.428.238,5.864,5.864,0,0,0-2.042.294,4.9,4.9,0,0,0-2.985,3.232.318.318,0,0,0,.141.347c.181.13.358.277.548.392a1.709,1.709,0,0,0,.535.146q.454.1.909.186,1.676.332,3.365.588,3.419.518,6.875.729a76.673,76.673,0,0,0,21.513-1.744.31.31,0,0,0,.136-.514A26.626,26.626,0,0,0,114.516,128.311Z" transform="translate(-77.269 -111.414)" fill="#f0f0f0"/>
    <path id="Path_66" data-name="Path 66" d="M1044.352,571.745l5.568-4.227,2.714,2.714-9.07,6.207Z" transform="translate(-829.68 -451.202)" fill="#2f2e41"/>
    <path id="Path_67" data-name="Path 67" d="M975.038,562.579H955.993l.668-2.164h0c4.14-1.5,1.815-4.72,5.753-6.689,9.632-4.816,13.361-19.188,11.951-24.869l6.312-.267S989.394,553.345,975.038,562.579Z" transform="translate(-765.559 -430.397)" fill="#2f2e41"/>
    <path id="Path_68" data-name="Path 68" d="M1092.2,597.024a3.2,3.2,0,0,1-4.137.077l-.012-.01v-.016a3.064,3.064,0,0,0-.123-.783,2.192,2.192,0,0,1-.08.542l-.016.059-.043-.044c-.037-.038-.073-.077-.106-.115a3.22,3.22,0,0,1-.492-.745,9.412,9.412,0,0,0-2.611-3.255,4.567,4.567,0,0,1-.548-.527,4.516,4.516,0,0,1,5.671-6.88l.028.017-.015.029a2.352,2.352,0,0,1-.42.605,3.065,3.065,0,0,0,.646-.467l.021-.019.023.016a4.527,4.527,0,0,1,.826.735l.026.03a2.016,2.016,0,0,0,1.493.689,3.2,3.2,0,0,1,3.1,3.749l0,.021-.021.006a2.745,2.745,0,0,1-1.118.14,3.12,3.12,0,0,0,1,.25l.044,0-.014.042a3.2,3.2,0,0,1-.923,1.392l-.012.011-.013.011a3.142,3.142,0,0,0-1.086,2.181A3.225,3.225,0,0,1,1092.2,597.024Z" transform="translate(-866.465 -475.016)" fill="#3f3d56"/>
    <path id="Path_69" data-name="Path 69" d="M1130.949,633.874a3.223,3.223,0,0,1-.036.344,3.236,3.236,0,0,0,.52-1.6c0-.087.013-.174.026-.261A3.037,3.037,0,0,0,1130.949,633.874Z" transform="translate(-904.628 -512.894)" opacity="0.15"/>
    <path id="Path_70" data-name="Path 70" d="M1136,620.282a3.117,3.117,0,0,0,.8.225,3.206,3.206,0,0,0,.292-.356A2.713,2.713,0,0,1,1136,620.282Z" transform="translate(-908.675 -503.192)" opacity="0.15"/>
    <path id="Path_71" data-name="Path 71" d="M1141.639,615.661a3.223,3.223,0,0,1-.023.83,3.184,3.184,0,0,0,.36-.743l.014-.042-.044,0A3.076,3.076,0,0,1,1141.639,615.661Z" transform="translate(-913.138 -499.622)" opacity="0.15"/>
    <path id="Path_72" data-name="Path 72" d="M1095.036,587.887a3.207,3.207,0,0,0-2.349-1.086,2.016,2.016,0,0,1-1.493-.689l-.026-.03a4.533,4.533,0,0,0-.826-.735l-.023-.016-.021.019a3.073,3.073,0,0,1-.646.467,2.348,2.348,0,0,0,.42-.605l.015-.029-.028-.017a4.513,4.513,0,0,0-6.686,2.922,4.514,4.514,0,0,1,6.2-1.663l.028.016-.015.029a2.356,2.356,0,0,1-.42.605,3.063,3.063,0,0,0,.646-.467l.021-.019.023.016a4.539,4.539,0,0,1,.826.735l.026.03a2.016,2.016,0,0,0,1.493.689,3.2,3.2,0,0,1,3.1,2.631,3.875,3.875,0,0,0,.463-.113l.021-.006,0-.021A3.187,3.187,0,0,0,1095.036,587.887Z" transform="translate(-866.831 -474.886)" opacity="0.15"/>
    <path id="Path_73" data-name="Path 73" d="M1004.227,439.233a10.307,10.307,0,0,1-8.609,10.166l-.052.008-.039-.033a9.879,9.879,0,0,0-2.154-1.367,7.052,7.052,0,0,1,1.141,1.345l.11.165-.2.009c-.171.008-.34.013-.5.013a10.394,10.394,0,0,1-2.846-.395,30.3,30.3,0,0,0-13.422-.608,14.708,14.708,0,0,1-2.439.2,14.541,14.541,0,0,1-4.575-28.342l.1-.033.039.1a7.571,7.571,0,0,1,.571,2.3,9.879,9.879,0,0,0,.246-2.556l0-.091.088-.022a14.6,14.6,0,0,1,3.534-.433h.129a6.491,6.491,0,0,0,4.84-2.144,10.3,10.3,0,0,1,15.655.481l.043.054-.029.063a8.842,8.842,0,0,1-2.041,3,10.045,10.045,0,0,0,2.722-1.878l.1-.1.072.124a10.3,10.3,0,0,1,1.4,5.191v.107a10.119,10.119,0,0,0,2.965,7.263A10.383,10.383,0,0,1,1004.227,439.233Z" transform="translate(-769.284 -339.411)" fill="#3f3d56"/>
    <g id="Group_7" data-name="Group 7" transform="translate(192.791 75.469)" opacity="0.15">
      <path id="Path_74" data-name="Path 74" d="M1106.652,417.717a7.283,7.283,0,0,1-1.3,1.593,10.023,10.023,0,0,0,2.029-1.268Q1107.024,417.865,1106.652,417.717Z" transform="translate(-1077.099 -417.717)"/>
      <path id="Path_75" data-name="Path 75" d="M1129.394,446.538a10.347,10.347,0,0,1,1.482,1.805,10.535,10.535,0,0,1-.964-4.425c0-.018,0-.037,0-.055v-.052a10.3,10.3,0,0,0-1.4-5.191l-.072-.124-.1.1a10.074,10.074,0,0,1-1.88,1.431A10.036,10.036,0,0,0,1129.394,446.538Z" transform="translate(-1093.875 -434.237)"/>
      <path id="Path_76" data-name="Path 76" d="M1123.791,427.752v.052c0,.018,0,.037,0,.055,0,.1,0,.2,0,.3a10.735,10.735,0,0,0,1.22-2.1l.029-.063-.043-.054a10.388,10.388,0,0,0-1.864-1.8A10.318,10.318,0,0,1,1123.791,427.752Z" transform="translate(-1091.237 -422.822)"/>
      <path id="Path_77" data-name="Path 77" d="M1006.5,494.191a9.319,9.319,0,0,1-1.313-1.6,10.295,10.295,0,0,1-7.628,14.529l-.051.008-.039-.033a9.873,9.873,0,0,0-2.154-1.367,7.057,7.057,0,0,1,1.141,1.345l.11.165-.2.009c-.171.008-.34.012-.5.012a10.4,10.4,0,0,1-2.846-.395,30.3,30.3,0,0,0-13.422-.608,14.706,14.706,0,0,1-2.439.2,14.475,14.475,0,0,1-9.658-3.683,14.554,14.554,0,0,0,13.14,8.327,14.716,14.716,0,0,0,2.44-.2,30.3,30.3,0,0,1,13.421.608,10.4,10.4,0,0,0,2.846.395c.164,0,.333,0,.5-.012l.2-.009-.11-.165a7.061,7.061,0,0,0-1.141-1.345,9.876,9.876,0,0,1,2.154,1.367l.039.033.051-.008a10.3,10.3,0,0,0,5.459-17.575Z" transform="translate(-967.495 -477.247)"/>
    </g>
    <path id="Path_78" data-name="Path 78" d="M90.5,538.753l-7.545-5.728L79.28,536.7l12.291,8.411Z" transform="translate(-63.033 -423.778)" fill="#2f2e41"/>
    <path id="Path_79" data-name="Path 79" d="M151.787,508.752H177.6l-.905-2.933h0c-5.61-2.031-2.459-6.4-7.8-9.065-13.053-6.527-18.107-26-16.2-33.7l-8.554-.362S132.333,496.238,151.787,508.752Z" transform="translate(-117.281 -378.004)" fill="#2f2e41"/>
    <path id="Path_80" data-name="Path 80" d="M69,552.375a4.259,4.259,0,0,0-1.471-2.956l-.017-.015-.016-.014a4.334,4.334,0,0,1-1.251-1.886l-.019-.057.06,0a4.227,4.227,0,0,0,1.35-.338,3.722,3.722,0,0,1-1.516-.189l-.028-.008,0-.029a4.337,4.337,0,0,1,4.2-5.081,2.732,2.732,0,0,0,2.023-.934l.036-.041a6.15,6.15,0,0,1,1.119-1l.031-.022.028.026a4.159,4.159,0,0,0,.876.633,3.189,3.189,0,0,1-.569-.821l-.02-.04.038-.022a6.12,6.12,0,0,1,7.685,9.324,6.186,6.186,0,0,1-.742.714,12.753,12.753,0,0,0-3.539,4.411,4.373,4.373,0,0,1-.666,1.009c-.046.052-.094.1-.144.156l-.058.06-.022-.081a2.968,2.968,0,0,1-.108-.734,4.156,4.156,0,0,0-.167,1.061v.022l-.017.014A4.335,4.335,0,0,1,69,552.375Z" transform="translate(-57.995 -438.47)" fill="#3f3d56"/>
    <path id="Path_81" data-name="Path 81" d="M81.173,605.367a4.327,4.327,0,0,0,.049.466,4.385,4.385,0,0,1-.7-2.172c-.006-.118-.018-.236-.035-.354A4.115,4.115,0,0,1,81.173,605.367Z" transform="translate(-69.489 -489.801)" opacity="0.15"/>
    <path id="Path_82" data-name="Path 82" d="M71.475,586.948a4.221,4.221,0,0,1-1.079.305,4.339,4.339,0,0,1-.4-.482A3.677,3.677,0,0,0,71.475,586.948Z" transform="translate(-61.156 -476.653)" opacity="0.15"/>
    <path id="Path_83" data-name="Path 83" d="M67.588,580.686a4.363,4.363,0,0,0,.031,1.125,4.313,4.313,0,0,1-.488-1.007l-.019-.057.06,0a4.191,4.191,0,0,0,.416-.057Z" transform="translate(-58.859 -471.816)" opacity="0.15"/>
    <path id="Path_84" data-name="Path 84" d="M67.2,543.047a4.347,4.347,0,0,1,3.183-1.472,2.732,2.732,0,0,0,2.023-.934l.036-.041a6.148,6.148,0,0,1,1.119-1l.031-.022.028.026a4.157,4.157,0,0,0,.876.633,3.189,3.189,0,0,1-.569-.82l-.02-.04.038-.022a6.115,6.115,0,0,1,9.06,3.959,6.116,6.116,0,0,0-8.4-2.253l-.038.022.02.04a3.187,3.187,0,0,0,.569.82,4.16,4.16,0,0,1-.876-.633l-.028-.026-.031.022a6.143,6.143,0,0,0-1.119,1l-.036.041a2.732,2.732,0,0,1-2.023.934,4.338,4.338,0,0,0-4.195,3.565,5.253,5.253,0,0,1-.628-.153l-.028-.008,0-.029a4.32,4.32,0,0,1,1.016-3.609Z" transform="translate(-58.069 -438.294)" opacity="0.15"/>
    <path id="Path_85" data-name="Path 85" d="M31.109,331.557a13.713,13.713,0,0,0,4.018-9.843c0-.025,0-.05,0-.075v-.07a13.955,13.955,0,0,1,1.9-7.035l.1-.168.139.135a13.613,13.613,0,0,0,3.688,2.545,11.982,11.982,0,0,1-2.766-4.067l-.039-.085.059-.073a13.964,13.964,0,0,1,21.215-.652,8.8,8.8,0,0,0,6.559,2.906h.175a19.8,19.8,0,0,1,4.791.588l.117.029,0,.123a13.387,13.387,0,0,0,.333,3.464,10.265,10.265,0,0,1,.774-3.12l.053-.132.135.045a19.706,19.706,0,0,1-6.2,38.409,19.939,19.939,0,0,1-3.306-.276,41.063,41.063,0,0,0-18.188.824,14.084,14.084,0,0,1-3.856.535c-.222,0-.452-.006-.683-.017l-.268-.013L40,355.31a9.558,9.558,0,0,1,1.546-1.822,13.384,13.384,0,0,0-2.919,1.853l-.053.044-.069-.011a13.958,13.958,0,0,1-7.4-23.817Z" transform="translate(-26.841 -254.703)" fill="#3f3d56"/>
    <g id="Group_8" data-name="Group 8" transform="translate(-0.002 53.892)" opacity="0.15">
      <path id="Path_86" data-name="Path 86" d="M106.3,312.44a9.867,9.867,0,0,0,1.76,2.159,13.579,13.579,0,0,1-2.749-1.718Q105.8,312.641,106.3,312.44Z" transform="translate(-89.231 -312.44)"/>
      <path id="Path_87" data-name="Path 87" d="M62.913,351.5a14.021,14.021,0,0,0-2.008,2.446,14.274,14.274,0,0,0,1.307-6c0-.025,0-.05,0-.075v-.07a13.955,13.955,0,0,1,1.9-7.035l.1-.168.139.135a13.644,13.644,0,0,0,2.547,1.94A13.6,13.6,0,0,1,62.913,351.5Z" transform="translate(-53.923 -334.827)"/>
      <path id="Path_88" data-name="Path 88" d="M83.715,326.038v.07c0,.025,0,.05,0,.075,0,.137,0,.274-.006.41a14.545,14.545,0,0,1-1.654-2.852l-.039-.085.059-.073a14.08,14.08,0,0,1,2.526-2.443A13.986,13.986,0,0,0,83.715,326.038Z" transform="translate(-70.707 -319.357)"/>
      <path id="Path_89" data-name="Path 89" d="M31.109,416.075a12.625,12.625,0,0,0,1.78-2.165A13.951,13.951,0,0,0,43.226,433.6l.069.011.053-.044a13.385,13.385,0,0,1,2.919-1.853,9.562,9.562,0,0,0-1.546,1.822l-.149.224.268.013c.231.011.461.017.683.017a14.089,14.089,0,0,0,3.856-.535,41.064,41.064,0,0,1,18.189-.824,19.939,19.939,0,0,0,3.306.276,19.616,19.616,0,0,0,13.088-4.991A19.723,19.723,0,0,1,66.155,439a19.939,19.939,0,0,1-3.306-.276,41.064,41.064,0,0,0-18.188.824,14.085,14.085,0,0,1-3.856.535c-.222,0-.452-.006-.683-.017l-.268-.013.149-.224a9.561,9.561,0,0,1,1.546-1.822,13.384,13.384,0,0,0-2.919,1.853l-.053.044-.069-.011a13.958,13.958,0,0,1-7.4-23.817Z" transform="translate(-26.839 -393.113)"/>
    </g>
    <circle id="Ellipse_20" data-name="Ellipse 20" cx="1.025" cy="1.025" r="1.025" transform="translate(93.319 36.892)" fill="#fff"/>
    <circle id="Ellipse_21" data-name="Ellipse 21" cx="0.615" cy="0.615" r="0.615" transform="translate(170.382 61.897)" fill="#fff"/>
    <circle id="Ellipse_22" data-name="Ellipse 22" cx="0.615" cy="0.615" r="0.615" transform="translate(182.27 34.228)" fill="#fff"/>
    <circle id="Ellipse_23" data-name="Ellipse 23" cx="0.615" cy="0.615" r="0.615" transform="translate(72.208 15.782)" fill="#fff"/>
    <circle id="Ellipse_24" data-name="Ellipse 24" cx="0.615" cy="0.615" r="0.615" transform="translate(66.06 40.581)" fill="#fff"/>
    <circle id="Ellipse_25" data-name="Ellipse 25" cx="0.615" cy="0.615" r="0.615" transform="translate(36.136 34.228)" fill="#fff"/>
    <circle id="Ellipse_26" data-name="Ellipse 26" cx="0.615" cy="0.615" r="0.615" transform="translate(142.098 39.352)" fill="#fff"/>
    <circle id="Ellipse_27" data-name="Ellipse 27" cx="0.615" cy="0.615" r="0.615" transform="translate(205.02 19.471)" fill="#fff"/>
    <path id="Path_90" data-name="Path 90" d="M326.569,395.477a4.5,4.5,0,0,1,.069-4.662,7.55,7.55,0,0,0,3.008,4.222c.568.387,1.24.758,1.435,1.417a1.688,1.688,0,0,1-.176,1.239,5.015,5.015,0,0,1-.778,1.016l-.028.1A9.153,9.153,0,0,1,326.569,395.477Z" transform="translate(-264.649 -320.86)" fill="#3f3d56"/>
    <path id="Path_91" data-name="Path 91" d="M908.569,594.477a4.5,4.5,0,0,1,.069-4.662,7.55,7.55,0,0,0,3.008,4.222c.568.387,1.24.758,1.435,1.417a1.688,1.688,0,0,1-.176,1.239,5.015,5.015,0,0,1-.778,1.016l-.028.1A9.153,9.153,0,0,1,908.569,594.477Z" transform="translate(-727.365 -479.073)" fill="#3f3d56"/>
    <path id="Path_92" data-name="Path 92" d="M589.568,431.477a4.5,4.5,0,0,1,.069-4.662,7.551,7.551,0,0,0,3.008,4.222c.568.387,1.24.758,1.435,1.417a1.687,1.687,0,0,1-.176,1.239,5.014,5.014,0,0,1-.778,1.016l-.028.1A9.154,9.154,0,0,1,589.568,431.477Z" transform="translate(-473.746 -349.481)" fill="#3f3d56"/>
    <path id="Path_93" data-name="Path 93" d="M285.569,547.477a4.5,4.5,0,0,1,.069-4.662,7.55,7.55,0,0,0,3.008,4.222c.568.387,1.24.758,1.435,1.417a1.688,1.688,0,0,1-.176,1.239,5.015,5.015,0,0,1-.778,1.016l-.027.1A9.153,9.153,0,0,1,285.569,547.477Z" transform="translate(-232.052 -441.706)" fill="#3f3d56"/>
    <path id="Path_94" data-name="Path 94" d="M247.569,633.477a4.5,4.5,0,0,1,.069-4.662,7.55,7.55,0,0,0,3.008,4.222c.568.387,1.24.758,1.435,1.417a1.688,1.688,0,0,1-.176,1.239,5.015,5.015,0,0,1-.778,1.016l-.028.1A9.153,9.153,0,0,1,247.569,633.477Z" transform="translate(-201.841 -510.08)" fill="#3f3d56"/>
    <rect id="Rectangle_6" data-name="Rectangle 6" width="2.255" height="120.719" transform="translate(172.842 13.937)" fill="#3f3d56"/>
    <rect id="Rectangle_7" data-name="Rectangle 7" width="14.757" height="14.757" rx="7.378" transform="translate(166.693 4.099)" fill="#ff6582"/>
    <path id="Path_95" data-name="Path 95" d="M418.643,407.616c0,2.352,2.565,4.443,4.918,4.443s3.6-2.091,3.6-4.443a4.259,4.259,0,0,0-8.519,0Z" transform="translate(-338.342 -330.831)" fill="#2f2e41"/>
    <path id="Path_96" data-name="Path 96" d="M395.521,451.444l7.91-.3.456-8.215H394.76Z" transform="translate(-313.853 -352.145)" fill="#ffb8b8"/>
    <path id="Path_97" data-name="Path 97" d="M392.532,537.407a1.267,1.267,0,0,0-.075-1.941l1.436-4.268-2.262.6-1.017,3.961a1.274,1.274,0,0,0,1.918,1.65Z" transform="translate(-315.885 -432.47)" fill="#ffb6b6"/>
    <circle id="Ellipse_28" data-name="Ellipse 28" cx="3.012" cy="3.012" r="3.012" transform="translate(82.198 75.204)" fill="#ffb8b8"/>
    <path id="Path_98" data-name="Path 98" d="M430.414,413.016l-2.2-.058a.308.308,0,0,1-.262-.161l-.735-1.364a.307.307,0,0,1,.081-.388l2.878-2.25a.307.307,0,0,1,.257-.057l2.325.53a.307.307,0,0,1,.227.214l.91,3.135a.307.307,0,0,1-.31.393l-1.14-.057a.309.309,0,0,1-.276-.211l-.047-.143a.036.036,0,0,0-.069.011.307.307,0,0,1-.323.307l-.377-.019a.306.306,0,0,1-.286-.247l-.163-.818a.036.036,0,0,0-.07,0l-.106.91a.306.306,0,0,1-.3.272Z" transform="translate(-345.13 -335.102)" fill="#2f2e41"/>
    <path id="Path_99" data-name="Path 99" d="M418.068,449.581l3.895.052,1.268,1.61,2.041.481.53,3.065a5.054,5.054,0,0,1-.8,3.849h0l-.093,2.648.1.187a.429.429,0,0,1-.129.558h0a.876.876,0,0,1,.024.577l-.05.166s-.145,1.161-8.369-.06a.811.811,0,0,1-.685-.7h0a.606.606,0,0,1-.112-.7l.017-.034-.084-.1a.651.651,0,0,1-.033-.8h0l-1.182-8.455,2.441-.76Z" transform="translate(-334.978 -367.581)" fill="#2f2e41"/>
    <path id="Path_100" data-name="Path 100" d="M399.269,461.854l-.975-.809s-.867.256-1.472,1.964-2.683,14.66-2.683,14.66l2.434-1.217,3.451-9.516Z" transform="translate(-318.86 -376.696)" fill="#2f2e41"/>
    <path id="Path_101" data-name="Path 101" d="M502.85,515.764a1.267,1.267,0,0,1-1.453-1.289l-4.21-1.6,1.9-1.369,3.707,1.727a1.274,1.274,0,0,1,.059,2.529Z" transform="translate(-400.788 -416.816)" fill="#ffb6b6"/>
    <path id="Path_102" data-name="Path 102" d="M461.881,460.439l.661-1.081s.9-.038,2.028,1.382c.577.728,4.314,6.972,4.314,6.972l3.456,2.881-2.83,1.011-3.335-1.415-3.739-6.165Z" transform="translate(-372.718 -375.355)" fill="#2f2e41"/>
    <path id="Path_103" data-name="Path 103" d="M435.553,638.646h1.882l.9-7.261h-2.778Z" transform="translate(-346.285 -501.979)" fill="#ffb6b6"/>
    <path id="Path_104" data-name="Path 104" d="M355.157,633.845l1.821.475,2.7-6.8-2.688-.7Z" transform="translate(-282.367 -498.349)" fill="#ffb6b6"/>
    <path id="Path_105" data-name="Path 105" d="M458.662,711.089l2.976-.178v1.275l2.829,1.954a.8.8,0,0,1-.453,1.452h-3.543l-.611-1.261-.238,1.261h-1.336Z" transform="translate(-369.861 -575.35)" fill="#2f2e41"/>
    <path id="Path_106" data-name="Path 106" d="M374.317,705.429l2.924.579-.322,1.234,2.245,2.6a.8.8,0,0,1-.8,1.291l-3.428-.894-.273-1.374-.549,1.16-1.292-.337Z" transform="translate(-301.91 -570.992)" fill="#2f2e41"/>
    <path id="Path_107" data-name="Path 107" d="M381.461,557.328l5.518-11.34.433-13.423c-1.194-2.218,2.323-7.111,2.323-7.111V523.56l8.591,1.621h0a41.24,41.24,0,0,1,2.513,14.974l-.346,18.347h.109a.679.679,0,1,1,0,1.359h-3.4a.679.679,0,1,1,0-1.359h.088l-2.439-23.341-2.836,11.518-6.853,10.605a.678.678,0,0,1-.054,1.353h-3.4a.679.679,0,0,1-.251-1.31Z" transform="translate(-308.44 -426.398)" fill="#2f2e41"/>
    <path id="Path_108" data-name="Path 108" d="M357.089,398.615a32.812,32.812,0,0,0,3.12-4.306c1.051-1.431,2.532-2.743,4.306-2.822a2.673,2.673,0,0,1,1.674.436,1.7,1.7,0,0,1,.739,1.51.77.77,0,1,1,.739,1.028l-.055-.217a3.74,3.74,0,0,1-2.419,1.606.61.61,0,0,1-.688-.79c-1.917.38-1.309,3.956-2.448,5.544s-4.4,1.434-6.319,1.79c-1.856.344-3.66-.686-5.267-1.676A7.844,7.844,0,0,0,357.089,398.615Z" transform="translate(-284.143 -321.388)" fill="#2f2e41"/>
    <path id="Path_109" data-name="Path 109" d="M530.125,547.168l-5.783-2.551v-2.194l2.061-.012a1.531,1.531,0,0,0,1.444-1.047l1.448-4.344a1.531,1.531,0,0,0-1.452-2.015h-3.5v-2.041h4.394a1.531,1.531,0,0,0,1.492-1.188l1-4.338a1.531,1.531,0,0,0-1.492-1.874h-5.391v-.51a1.021,1.021,0,1,0-2.041,0v.51H486.155v-.51a1.021,1.021,0,1,0-2.041,0v.51h-4.286a1.531,1.531,0,0,0-1.492,1.874l1,4.338a1.531,1.531,0,0,0,1.492,1.188h3.289v2.041h-2.395a1.531,1.531,0,0,0-1.457,2l1.478,4.586a1.531,1.531,0,0,0,1.466,1.061l.908-.005v1.968l-4.678,2.551a1.531,1.531,0,0,0-1.531,1.531h0a1.531,1.531,0,0,0,1.531,1.531h4.678v11.226a1.021,1.021,0,0,0,2.041,0V550.23H522.3v11.226a1.021,1.021,0,0,0,2.041,0V550.23h5.783a1.531,1.531,0,0,0,1.531-1.531h0a1.531,1.531,0,0,0-1.531-1.531Zm-43.97-14.2H522.3v2.041H486.155Zm0,11.652v-1.979l36.145-.2v2.182Z" transform="translate(-385.459 -426.776)" fill="#3f3d56"/>
  </g>
</svg>
