<svg xmlns="http://www.w3.org/2000/svg" width="420.485" height="511.344" viewBox="0 0 420.485 511.344">
  <g id="Group" data-name="Group" transform="translate(-809.758 -1881)">
    <g id="undraw_pie_chart_re_bgs8" transform="translate(674.221 2114.378)">
      <path id="Path_232" data-name="Path 232" d="M824.858,130.964A55.692,55.692,0,0,0,786.515,113.5v55.807Z" transform="translate(-557.235 -113.5)" fill="#3f3d56"/>
      <path id="Path_233" data-name="Path 233" d="M824.858,201.87l-38.343,38.343H840.1A55.663,55.663,0,0,0,824.858,201.87Z" transform="translate(-557.235 -177.457)" fill="#e4e4e4"/>
      <path id="Path_234" data-name="Path 234" d="M840.154,355.18a56.007,56.007,0,0,1-.961,10.368c-.05.271-.1.539-.158.807a55.4,55.4,0,0,1-6.464,16.94c-.163.282-.332.564-.5.84v0a56.028,56.028,0,0,1-11.216,13.269c-.218.191-.437.379-.657.564a55.613,55.613,0,0,1-33.687,13.017V355.18Z" transform="translate(-557.232 -288.414)" fill="#f0f0f0"/>
      <path id="Path_235" data-name="Path 235" d="M666.363,411.032c.742,0,1.479-.019,2.214-.048v-55.81L627.99,395.762a55.663,55.663,0,0,0,38.373,15.27Z" transform="translate(-442.504 -288.41)" fill="#cacaca"/>
      <path id="Path_236" data-name="Path 236" d="M620.833,138.473a55.857,55.857,0,0,0-55.857,55.857H623.1V138.523C622.35,138.492,621.594,138.473,620.833,138.473Z" transform="translate(-396.898 -131.574)" fill="#1cc5aa"/>
      <path id="Path_237" data-name="Path 237" d="M566.792,355.18l-11.744,11.744-.384.384-.008.008-10.241,10.238-.389.39-11.064,11.064-.39.39v0l-6.368,6.365A55.7,55.7,0,0,1,508.72,355.18Z" transform="translate(-356.184 -288.414)" fill="#1cc5aa"/>
      <path id="Path_253" data-name="Path 253" d="M555.834,389.348a50.634,50.634,0,0,1-14.973-34.2l1.1-.04a49.533,49.533,0,0,0,14.648,33.456Z" transform="translate(-379.446 -288.362)" fill="#3f3d56"/>
      <path id="Path_254" data-name="Path 254" d="M603.129,377.565l-.8.757a50.8,50.8,0,0,1-12.5-23.012l.536-.13h.569a49.725,49.725,0,0,0,12.183,22.374Z" transform="translate(-414.886 -288.414)" fill="#3f3d56"/>
      <path id="Path_255" data-name="Path 255" d="M654.434,366.962l-.414.345-.008.008-.425.354A50.764,50.764,0,0,1,646,355.4l.506-.221h.605a49.612,49.612,0,0,0,7.293,11.744A.36.36,0,0,0,654.434,366.962Z" transform="translate(-455.539 -288.414)" fill="#3f3d56"/>
    </g>
    <g id="undraw_fast_loading_re_8oi3" transform="translate(829.91 1881)">
      <path id="Path_968" data-name="Path 968" d="M653.346,215.228H650.54V138.26a44.547,44.547,0,0,0-44.547-44.547H442.924a44.547,44.547,0,0,0-44.547,44.547V560.51a44.547,44.547,0,0,0,44.547,44.547H605.992a44.547,44.547,0,0,0,44.547-44.547v-290.5h2.806Z" transform="translate(-253.014 -93.714)" fill="#3f3d56"/>
      <path id="Path_969" data-name="Path 969" d="M644.928,138.311V566.527a33.785,33.785,0,0,1-33.769,33.781H444.739a33.792,33.792,0,0,1-33.8-33.786V138.311a33.79,33.79,0,0,1,33.795-33.78h20.187a16.065,16.065,0,0,0,14.862,22.117h94.876a16.065,16.065,0,0,0,14.862-22.117h21.624a33.785,33.785,0,0,1,33.78,33.768Z" transform="translate(-256.539 -96.748)" fill="#fff"/>
      <path id="Path_39" data-name="Path 39" d="M620.1,477.872H472.219a2.741,2.741,0,0,1-2.738-2.738V438.452a2.742,2.742,0,0,1,2.738-2.738H620.1a2.742,2.742,0,0,1,2.738,2.738v36.683a2.742,2.742,0,0,1-2.738,2.738Zm-147.88-41.064a1.645,1.645,0,0,0-1.643,1.643v36.683a1.645,1.645,0,0,0,1.643,1.643H620.1a1.645,1.645,0,0,0,1.643-1.643V438.452a1.645,1.645,0,0,0-1.643-1.643Z" transform="translate(-272.96 -189.651)" fill="#e6e6e6"/>
      <path id="Path_40" data-name="Path 40" d="M536.1,454.075a1.917,1.917,0,0,0,0,3.834h90.37a1.917,1.917,0,1,0,.147-3.832H536.1Z" transform="translate(-291.111 -194.802)" fill="#e6e6e6"/>
      <path id="Path_41" data-name="Path 41" d="M536.1,470.058a1.917,1.917,0,0,0,0,3.834h90.37a1.917,1.917,0,1,0,.147-3.832H536.1Z" transform="translate(-291.111 -199.286)" fill="#e6e6e6"/>
      <path id="Path_42" data-name="Path 42" d="M620.1,562.852H472.219a2.741,2.741,0,0,1-2.738-2.738V523.432a2.742,2.742,0,0,1,2.738-2.738H620.1a2.742,2.742,0,0,1,2.738,2.738v36.683A2.742,2.742,0,0,1,620.1,562.852Zm-147.88-41.064a1.645,1.645,0,0,0-1.643,1.643v36.683a1.645,1.645,0,0,0,1.643,1.643H620.1a1.645,1.645,0,0,0,1.643-1.643V523.432a1.645,1.645,0,0,0-1.643-1.643Z" transform="translate(-272.96 -213.49)" fill="#e6e6e6"/>
      <path id="Path_43" data-name="Path 43" d="M536.1,539.33a1.917,1.917,0,0,0,0,3.834h90.37a1.917,1.917,0,1,0,.063-3.834H536.1Z" transform="translate(-291.111 -218.718)" fill="#e6e6e6"/>
      <path id="Path_44" data-name="Path 44" d="M536.1,555.318a1.917,1.917,0,0,0,0,3.834h90.37a1.917,1.917,0,1,0,.063-3.834H536.1Z" transform="translate(-291.111 -223.203)" fill="#e6e6e6"/>
      <path id="Path_39-2" data-name="Path 39-2" d="M620.1,648.11H472.219a2.741,2.741,0,0,1-2.738-2.738V608.69a2.742,2.742,0,0,1,2.738-2.738H620.1a2.742,2.742,0,0,1,2.738,2.738v36.683a2.742,2.742,0,0,1-2.738,2.738Zm-147.88-41.063a1.645,1.645,0,0,0-1.643,1.643v36.683a1.645,1.645,0,0,0,1.643,1.643H620.1a1.645,1.645,0,0,0,1.643-1.643V608.69a1.645,1.645,0,0,0-1.643-1.643Z" transform="translate(-272.96 -237.407)" fill="#e6e6e6"/>
      <path id="Path_40-2" data-name="Path 40-2" d="M536.1,624.592a1.917,1.917,0,0,0,0,3.834h90.37a1.917,1.917,0,1,0,.147-3.832H536.1Z" transform="translate(-291.111 -242.636)" fill="#e6e6e6"/>
      <path id="Path_41-2" data-name="Path 41-2" d="M536.1,640.578a1.917,1.917,0,0,0,0,3.834h90.37a1.917,1.917,0,1,0,.147-3.832H536.1Z" transform="translate(-291.111 -247.12)" fill="#e6e6e6"/>
      <g id="Group_59" data-name="Group 59" transform="translate(206.207 255.415)">
        <circle id="Ellipse_5" data-name="Ellipse 5" cx="11.502" cy="11.502" r="11.502" fill="#1cc5aa"/>
        <path id="Path_40-3" data-name="Path 40-3" d="M491.182,461.712a7.79,7.79,0,0,0,0,3.834h11.31c.132.017.242-.827.244-1.885a4.276,4.276,0,0,0-.236-1.948H491.182Z" transform="translate(-485.187 -452.359)" fill="#e6e6e6"/>
      </g>
      <g id="Group_60" data-name="Group 60" transform="translate(206.207 316.781)">
        <circle id="Ellipse_5-2" data-name="Ellipse 5-2" cx="11.502" cy="11.502" r="11.502" fill="#1cc5aa"/>
        <path id="Path_40-4" data-name="Path 40-4" d="M491.182,547.005a7.79,7.79,0,0,0,0,3.834h11.31c.132.017.242-.827.244-1.885a4.275,4.275,0,0,0-.236-1.948H491.182Z" transform="translate(-485.187 -537.652)" fill="#e6e6e6"/>
      </g>
      <g id="Group_61" data-name="Group 61" transform="translate(206.207 378.123)">
        <circle id="Ellipse_5-3" data-name="Ellipse 5-3" cx="11.502" cy="11.502" r="11.502" fill="#1cc5aa"/>
        <path id="Path_40-5" data-name="Path 40-5" d="M491.182,632.264a7.79,7.79,0,0,0,0,3.834h11.31c.132.017.242-.827.244-1.885a4.275,4.275,0,0,0-.236-1.948H491.182Z" transform="translate(-485.187 -622.91)" fill="#e6e6e6"/>
      </g>
      <path id="Path_194" data-name="Path 194" d="M599.5,278.319a1.888,1.888,0,0,1-1.688-1.031,22.245,22.245,0,0,0-13.2-11.112,25.235,25.235,0,0,0-3.537-.8l-.244-.037,12.588-39.356.213.007c24.455,6.645,38.447,26.245,42.153,32.093a1.891,1.891,0,0,1-.756,2.7l-34.68,17.332a1.9,1.9,0,0,1-.85.2Z" transform="translate(-286.196 -106.058)" fill="#e6e6e6"/>
      <ellipse id="Ellipse_55" data-name="Ellipse 55" cx="3.366" cy="3.366" rx="3.366" ry="3.366" transform="translate(288.811 173.015)" fill="#3f3d56"/>
      <path id="Path_195" data-name="Path 195" d="M471.224,275.215a1.889,1.889,0,0,1-.883-.221l-34.479-18.189a1.893,1.893,0,0,1-.733-2.661A76.428,76.428,0,0,1,452.374,234.8a62.864,62.864,0,0,1,40.253-14.092,63.9,63.9,0,0,1,16.435,2.225l.212.058-12.591,39.354-.177-.027a28.056,28.056,0,0,0-3.424-.3,20.831,20.831,0,0,0-20.155,12.129,1.857,1.857,0,0,1-1.1.972,1.905,1.905,0,0,1-.6.1Z" transform="translate(-201.634 -103.003)" fill="#1cc5aa"/>
      <path id="Path_196" data-name="Path 196" d="M593.952,226.483l-8.9,39.783a25.411,25.411,0,0,0-3.568-.808l12.466-38.975Z" transform="translate(-286.575 -106.347)" fill="#3f3d56"/>
    </g>
    <g id="undraw_dark_analytics_re_2kvy" transform="translate(624.537 1654.294)">
      <path id="Path_256" data-name="Path 256" d="M608.684,566.456H385.673a8.572,8.572,0,0,1-8.563-8.563V449.813a8.572,8.572,0,0,1,8.563-8.563H608.684a8.572,8.572,0,0,1,8.563,8.563V557.893a8.573,8.573,0,0,1-8.563,8.563Z" transform="translate(-191.89 -129.75)" fill="#3f3d56"/>
      <rect id="Rectangle_11" data-name="Rectangle 11" width="166.993" height="0.761" transform="translate(221.581 373.722)" fill="#f0f0f0"/>
      <rect id="Rectangle_12" data-name="Rectangle 12" width="166.993" height="0.761" transform="translate(221.581 388.945)" fill="#f0f0f0"/>
      <rect id="Rectangle_13" data-name="Rectangle 13" width="166.993" height="0.761" transform="translate(221.581 404.168)" fill="#f0f0f0"/>
      <g id="Group_12" data-name="Group 12" transform="translate(223.081 360.154)" opacity="0.2">
        <path id="Path_257" data-name="Path 257" d="M641.948,576.467c-4.957-5.36-13.239-6.368-20.357-4.743s-13.508,5.427-20.126,8.509-13.966,5.514-21.135,4.135c-6.923-1.332-12.642-5.987-18.58-9.788s-13.172-6.933-19.886-4.782c-8.311,2.662-12.14,11.965-18.109,18.33a30.709,30.709,0,0,1-47.16-2.843V613.73H641.513Z" transform="translate(-476.595 -569.097)" fill="#1cc5aa"/>
      </g>
      <rect id="Rectangle_14" data-name="Rectangle 14" width="166.993" height="0.761" transform="translate(221.581 343.277)" fill="#f0f0f0"/>
      <rect id="Rectangle_15" data-name="Rectangle 15" width="166.993" height="0.761" transform="translate(221.581 358.5)" fill="#f0f0f0"/>
      <path id="Path_258" data-name="Path 258" d="M475.122,584.759a31.342,31.342,0,0,0,46.942,4.084c3.95-3.779,6.667-8.595,10.168-12.754a23.242,23.242,0,0,1,5.877-5.239,14.829,14.829,0,0,1,8.634-1.951c6.732.489,12.514,4.505,17.939,8.148,5.273,3.54,10.822,6.982,17.325,7.419,6.842.46,13.494-2.048,19.569-4.933,6.217-2.953,12.278-6.468,19.041-8.04,5.51-1.281,11.778-1.038,16.724,1.944a15.166,15.166,0,0,1,3.222,2.618c.5.536,1.311-.272.807-.807-3.821-4.064-9.444-5.69-14.9-5.616-6.37.087-12.347,2.529-18,5.253-6.287,3.028-12.462,6.508-19.371,7.913a24.515,24.515,0,0,1-10.406.031,31.06,31.06,0,0,1-8.828-3.809c-5.553-3.318-10.577-7.518-16.7-9.8-5.629-2.1-11.783-2.131-16.829,1.421-4.344,3.058-7.238,7.679-10.358,11.874a40.777,40.777,0,0,1-5.49,6.237,30.57,30.57,0,0,1-7.842,5.038,29.981,29.981,0,0,1-18.024,2.088,30.89,30.89,0,0,1-15.585-8.317,29.527,29.527,0,0,1-2.921-3.378c-.432-.584-1.424-.015-.986.576Z" transform="translate(-252.534 -208.127)" fill="#1cc5aa"/>
      <circle id="Ellipse_56" data-name="Ellipse 56" cx="3.806" cy="3.806" r="3.806" transform="translate(289.402 356.704)" fill="#1cc5aa"/>
      <circle id="Ellipse_57" data-name="Ellipse 57" cx="3.806" cy="3.806" r="3.806" transform="translate(369.321 357.845)" fill="#1cc5aa"/>
      <circle id="Ellipse_58" data-name="Ellipse 58" cx="3.806" cy="3.806" r="3.806" transform="translate(246.398 384.865)" fill="#1cc5aa"/>
    </g>
  </g>
</svg>
