<svg xmlns="http://www.w3.org/2000/svg" width="218.736" height="168.257" viewBox="0 0 218.736 168.257">
  <g id="undraw_happy_birthday_re_c16u" transform="translate(0)">
    <path id="Path_147" data-name="Path 147" d="M707.137,285.8c4.693-12.616,15.779-23.518,29.177-24.814a62.019,62.019,0,0,0-9.8,41.436c.686,5.6,2.032,11.765-.989,16.534a13.863,13.863,0,0,1-8.606,5.619,41.172,41.172,0,0,1-10.485.692l-.786.388C703.176,312.428,702.445,298.421,707.137,285.8Z" transform="translate(-560.552 -238.428)" fill="#f0f0f0"/>
    <path id="Path_148" data-name="Path 148" d="M740.1,260.643a53.008,53.008,0,0,0-19.694,26,22.828,22.828,0,0,0-1.393,7.015,13.093,13.093,0,0,0,1.77,6.659c1.057,1.907,2.359,3.736,2.934,5.867a8.017,8.017,0,0,1-1.126,6.459,20.827,20.827,0,0,1-6.076,5.637c-2.537,1.747-5.2,3.522-6.751,6.267-.188.333-.693.021-.505-.311,2.7-4.776,8.367-6.511,11.834-10.568a8.119,8.119,0,0,0,2.175-6.806c-.437-2.2-1.778-4.091-2.865-6.013a13.969,13.969,0,0,1-1.974-6.447,21.1,21.1,0,0,1,1.118-7.043,51.428,51.428,0,0,1,7.254-14.344,53.946,53.946,0,0,1,13.02-12.894c.312-.218.59.307.28.523Z" transform="translate(-564.276 -237.806)" fill="#fff"/>
    <path id="Path_149" data-name="Path 149" d="M737.583,310.945a7.953,7.953,0,0,1-3.973-9.5c.117-.363.687-.2.57.165a7.364,7.364,0,0,0,3.714,8.831c.341.171.028.676-.311.505Z" transform="translate(-580.468 -265.567)" fill="#fff"/>
    <path id="Path_150" data-name="Path 150" d="M742.249,366.061a15.329,15.329,0,0,0,8.694-7.015c.189-.332.694-.021.505.311a15.944,15.944,0,0,1-9.062,7.281C742.022,366.753,741.886,366.175,742.249,366.061Z" transform="translate(-586.402 -304.449)" fill="#fff"/>
    <path id="Path_151" data-name="Path 151" d="M774.487,286.414a4.5,4.5,0,0,0,4.2.772c.364-.119.5.459.138.577a5.045,5.045,0,0,1-4.65-.843.306.306,0,0,1-.1-.408.3.3,0,0,1,.408-.1Z" transform="translate(-607.981 -255.541)" fill="#fff"/>
    <path id="Path_152" data-name="Path 152" d="M771.694,350.72c-.225.081-.45.161-.676.247a59.286,59.286,0,0,0-8.74,4.014c-.218.118-.438.241-.652.365A62.5,62.5,0,0,0,744.138,370.3a60.7,60.7,0,0,0-5.216,7.605c-2.131,3.679-4.149,7.837-7.279,10.518a10.42,10.42,0,0,1-1.02.788l-21.356-5.053c-.043-.036-.087-.067-.13-.1l-.862-.163c.07-.143.146-.29.216-.433.04-.083.085-.165.125-.248.028-.055.057-.11.079-.161.009-.018.019-.037.027-.05.022-.051.049-.1.07-.143q.631-1.232,1.282-2.46s0,0,.007-.009a89.239,89.239,0,0,1,11.849-17.458c.14-.157.281-.319.431-.474a57.91,57.91,0,0,1,6.88-6.481,51.2,51.2,0,0,1,4.216-3.01,42.579,42.579,0,0,1,12.206-5.313c8.617-2.232,17.851-1.683,25.452,2.725C771.311,350.49,771.5,350.6,771.694,350.72Z" transform="translate(-563.639 -295.998)" fill="#f0f0f0"/>
    <path id="Path_153" data-name="Path 153" d="M772.033,359.23a53.009,53.009,0,0,0-31.376,8.9,22.828,22.828,0,0,0-5.336,4.763,13.091,13.091,0,0,0-2.6,6.383c-.3,2.159-.366,4.4-1.19,6.45a8.016,8.016,0,0,1-4.787,4.479,20.828,20.828,0,0,1-8.245.842c-3.078-.132-6.272-.318-9.163.94-.35.152-.567-.4-.217-.552,5.032-2.188,10.6-.161,15.811-1.313A8.119,8.119,0,0,0,730.767,386c.978-2.023,1.043-4.337,1.332-6.526a13.97,13.97,0,0,1,2.306-6.336,21.105,21.105,0,0,1,5.133-4.95,51.428,51.428,0,0,1,14.428-7.085,53.948,53.948,0,0,1,18.159-2.457C772.506,358.658,772.412,359.244,772.033,359.23Z" transform="translate(-564.09 -304.249)" fill="#fff"/>
    <path id="Path_154" data-name="Path 154" d="M813.429,360.411a7.953,7.953,0,0,1,2.548-9.978c.312-.22.668.255.355.475a7.364,7.364,0,0,0-2.351,9.287c.169.342-.384.557-.552.216Z" transform="translate(-633.996 -298.698)" fill="#fff"/>
    <path id="Path_155" data-name="Path 155" d="M781.121,417.823a15.329,15.329,0,0,0,11.165-.366c.351-.151.567.4.216.552a15.944,15.944,0,0,1-11.619.358C780.523,418.238,780.763,417.7,781.121,417.823Z" transform="translate(-612.476 -343.911)" fill="#fff"/>
    <path id="Path_156" data-name="Path 156" d="M863.749,362.6a4.5,4.5,0,0,0,2.89,3.146c.362.124.122.667-.238.544a5.045,5.045,0,0,1-3.2-3.473.307.307,0,0,1,.168-.384A.3.3,0,0,1,863.749,362.6Z" transform="translate(-668.086 -306.812)" fill="#fff"/>
    <path id="Path_157" data-name="Path 157" d="M287.716,628.1c-12.226-5.632-22.259-17.51-22.54-30.968a62.018,62.018,0,0,0,40.578,12.9c5.639-.261,11.884-1.138,16.412,2.235a13.863,13.863,0,0,1,4.953,9.006,41.175,41.175,0,0,1-.1,10.507l.328.813C313.964,634.057,299.942,633.728,287.716,628.1Z" transform="translate(-264.871 -465.076)" fill="#f0f0f0"/>
    <path id="Path_158" data-name="Path 158" d="M264.823,596.672a53.009,53.009,0,0,0,24.436,21.6,22.827,22.827,0,0,0,6.89,1.919,13.094,13.094,0,0,0,6.774-1.263c1.982-.91,3.9-2.07,6.071-2.482a8.017,8.017,0,0,1,6.355,1.61,20.829,20.829,0,0,1,5.162,6.485c1.551,2.661,3.12,5.45,5.74,7.2.317.213-.031.693-.348.481-4.558-3.053-5.86-8.835-9.644-12.6a8.119,8.119,0,0,0-6.622-2.682c-2.231.27-4.214,1.464-6.212,2.4a13.972,13.972,0,0,1-6.578,1.481,21.1,21.1,0,0,1-6.938-1.647,51.427,51.427,0,0,1-13.755-8.316,53.947,53.947,0,0,1-11.874-13.957C264.086,596.583,264.63,596.346,264.823,596.672Z" transform="translate(-264.239 -464.663)" fill="#fff"/>
    <path id="Path_159" data-name="Path 159" d="M310.084,658.509a7.953,7.953,0,0,1-9.774,3.244c-.353-.144-.146-.7.208-.556a7.365,7.365,0,0,0,9.086-3.036c.2-.327.676.023.48.348Z" transform="translate(-288.437 -506.139)" fill="#fff"/>
    <path id="Path_160" data-name="Path 160" d="M366.723,647a15.329,15.329,0,0,0-6.338-9.2c-.317-.214.032-.694.348-.48a15.945,15.945,0,0,1,6.576,9.586C367.4,647.277,366.809,647.369,366.723,647Z" transform="translate(-328.983 -492.139)" fill="#fff"/>
    <path id="Path_161" data-name="Path 161" d="M288.355,618.156a4.5,4.5,0,0,0,1.087-4.131c-.091-.371.5-.463.586-.094a5.045,5.045,0,0,1-1.192,4.573.307.307,0,0,1-.414.066A.3.3,0,0,1,288.355,618.156Z" transform="translate(-280.462 -476.247)" fill="#fff"/>
    <path id="Path_162" data-name="Path 162" d="M359.383,505.725c.063.23.127.461.195.693a59.294,59.294,0,0,0,3.342,9.018c.1.227.207.455.315.678a62.5,62.5,0,0,0,13.593,18.567,60.692,60.692,0,0,0,7.19,5.776c3.507,2.4,7.5,4.729,9.938,8.053a10.418,10.418,0,0,1,.708,1.077L388.013,570.5c-.039.04-.073.082-.112.122l-.227.847c-.137-.081-.278-.167-.415-.248-.08-.046-.158-.1-.238-.144-.053-.032-.105-.065-.155-.091l-.048-.031c-.049-.026-.093-.056-.137-.081q-1.181-.722-2.356-1.464s0,0-.008-.008A89.24,89.24,0,0,1,367.8,556.268c-.146-.152-.3-.3-.44-.466a57.923,57.923,0,0,1-5.943-7.35,51.18,51.18,0,0,1-2.683-4.432,42.577,42.577,0,0,1-4.376-12.573c-1.575-8.761-.33-17.927,4.639-25.174C359.125,506.089,359.251,505.909,359.383,505.725Z" transform="translate(-324.572 -403.445)" fill="#f0f0f0"/>
    <path id="Path_163" data-name="Path 163" d="M369.986,505.383a53.009,53.009,0,0,0,6.506,31.959,22.83,22.83,0,0,0,4.346,5.681,13.092,13.092,0,0,0,6.169,3.07c2.13.467,4.363.7,6.342,1.673a8.016,8.016,0,0,1,4.1,5.112,20.828,20.828,0,0,1,.217,8.286c-.364,3.058-.79,6.23.245,9.208.125.361-.442.534-.567.174-1.8-5.182.64-10.583-.115-15.865a8.119,8.119,0,0,0-3.672-6.128c-1.944-1.128-4.246-1.368-6.407-1.821a13.971,13.971,0,0,1-6.144-2.777,21.1,21.1,0,0,1-4.548-5.493,51.433,51.433,0,0,1-5.976-14.922,53.951,53.951,0,0,1-1.078-18.293C369.451,504.869,370.028,505.007,369.986,505.383Z" transform="translate(-334.925 -402.972)" fill="#fff"/>
    <path id="Path_164" data-name="Path 164" d="M365.586,587.2a7.953,7.953,0,0,1-9.757-3.294c-.2-.328.3-.647.5-.319a7.364,7.364,0,0,0,9.082,3.046C365.766,586.493,365.938,587.061,365.586,587.2Z" transform="translate(-325.965 -455.854)" fill="#fff"/>
    <path id="Path_165" data-name="Path 165" d="M420.662,606.943a15.328,15.328,0,0,0,.478-11.161c-.124-.362.443-.535.567-.174a15.944,15.944,0,0,1-.521,11.613C421.031,607.571,420.507,607.291,420.662,606.943Z" transform="translate(-369.691 -463.916)" fill="#fff"/>
    <path id="Path_166" data-name="Path 166" d="M371.061,538.1a4.5,4.5,0,0,0,3.355-2.644c.151-.351.674-.071.524.278a5.045,5.045,0,0,1-3.7,2.934.307.307,0,0,1-.371-.2A.3.3,0,0,1,371.061,538.1Z" transform="translate(-336.125 -423.381)" fill="#fff"/>
    <path id="Path_167" data-name="Path 167" d="M392.8,351.286c-10.8-10.635-15.366-21.73-12.848-31.241,3.231-12.205,17.586-20.644,39.383-23.153l.081.7c-21.494,2.474-35.63,10.723-38.782,22.633-2.45,9.256,2.046,20.109,12.661,30.559Z" transform="translate(-341.805 -262.636)" fill="#f0f0f0"/>
    <path id="Path_168" data-name="Path 168" d="M553.646,523.392a169.117,169.117,0,0,1-42.688-5.856c-18-4.765-34.5-11.956-47.721-20.8l.391-.586c13.158,8.8,29.587,15.957,47.509,20.7a164.68,164.68,0,0,0,47.184,5.75l.026.7Q556.024,523.392,553.646,523.392Z" transform="translate(-398.417 -396.99)" fill="#f0f0f0"/>
    <path id="Path_169" data-name="Path 169" d="M727.481,395.158l-.226-.667c12.059-4.077,19.6-10.645,21.812-18.994,2.81-10.614-3.294-22.93-17.188-34.681-13.965-11.81-34.1-21.61-56.7-27.593l.18-.681c22.7,6.01,42.936,15.86,56.978,27.736,14.114,11.936,20.3,24.508,17.415,35.4C747.474,384.265,739.775,391,727.481,395.158Z" transform="translate(-541.32 -273.187)" fill="#f0f0f0"/>
    <path id="Path_170" data-name="Path 170" d="M376.824,491.019c-26.494-11.75-46.909-26.995-57.485-42.925l.587-.39c10.5,15.82,30.811,30.975,57.183,42.671Z" transform="translate(-301.392 -364.323)" fill="#f0f0f0"/>
    <path id="Path_171" data-name="Path 171" d="M764.528,626.229q-4.1,0-8.338-.183l.03-.7c21.09.913,39.7-1.611,53.815-7.3l.264.654C797.984,623.658,782.287,626.229,764.528,626.229Z" transform="translate(-595.946 -479.177)" fill="#f0f0f0"/>
    <path id="Path_172" data-name="Path 172" d="M554.211,272.936c-4.379-1.426-8.883-2.753-13.387-3.946-25.92-6.862-51.4-9.3-73.684-7.044l-.071-.7c22.368-2.261,47.935.181,73.935,7.064,4.517,1.2,9.034,2.527,13.425,3.957Z" transform="translate(-401.001 -238.048)" fill="#f0f0f0"/>
    <path id="Path_173" data-name="Path 173" d="M341.968,354.53C331.165,343.9,326.6,332.8,329.12,323.29c3.231-12.205,17.586-20.644,39.383-23.153l.08.7c-21.494,2.474-35.629,10.723-38.782,22.633-2.451,9.256,2.046,20.109,12.661,30.559Z" transform="translate(-307.53 -264.823)" fill="#f0f0f0"/>
    <path id="Path_174" data-name="Path 174" d="M502.814,526.636a169.107,169.107,0,0,1-42.688-5.856c-18-4.765-34.5-11.956-47.721-20.8l.392-.586c13.158,8.8,29.587,15.957,47.509,20.7a164.674,164.674,0,0,0,47.184,5.75l.026.7Q505.191,526.637,502.814,526.636Z" transform="translate(-364.142 -399.178)" fill="#f0f0f0"/>
    <path id="Path_175" data-name="Path 175" d="M676.648,398.4l-.226-.667c12.059-4.077,19.6-10.645,21.812-18.994,2.81-10.614-3.295-22.93-17.188-34.681-13.965-11.81-34.1-21.61-56.7-27.593l.18-.681c22.7,6.01,42.936,15.86,56.978,27.736,14.113,11.936,20.3,24.508,17.415,35.4C696.642,387.51,688.942,394.246,676.648,398.4Z" transform="translate(-507.045 -275.375)" fill="#f0f0f0"/>
    <path id="Path_176" data-name="Path 176" d="M325.992,494.264c-26.494-11.75-46.909-26.995-57.485-42.926l.587-.39c10.5,15.821,30.811,30.975,57.183,42.671Z" transform="translate(-267.117 -366.511)" fill="#f0f0f0"/>
    <path id="Path_177" data-name="Path 177" d="M713.7,629.474q-4.1,0-8.338-.183l.03-.7c21.09.913,39.7-1.611,53.816-7.3l.263.654C747.152,626.9,731.455,629.474,713.7,629.474Z" transform="translate(-561.672 -481.365)" fill="#f0f0f0"/>
    <path id="Path_178" data-name="Path 178" d="M503.378,276.181c-4.379-1.426-8.883-2.753-13.387-3.946-25.92-6.862-51.4-9.3-73.684-7.044l-.071-.7c22.368-2.261,47.935.181,73.935,7.064,4.517,1.2,9.034,2.527,13.425,3.957Z" transform="translate(-366.726 -240.235)" fill="#f0f0f0"/>
    <path id="Path_179" data-name="Path 179" d="M452.739,462.691a5.467,5.467,0,0,0-5.461,5.461,256.592,256.592,0,0,0-2.072,46.139c.042.984.087,1.884.141,2.752.077,1.434.176,2.948.292,4.5.067.916.137,1.834.215,2.75.129,1.491.271,3.006.423,4.5.095.915.193,1.833.3,2.749.2,1.8.432,3.64.7,5.633a5.474,5.474,0,0,0,5.462,5.484h91.6A5.467,5.467,0,0,0,549.8,537.2l0-.038c.408-1.859.788-3.753,1.13-5.63.183-.99.34-1.889.482-2.748.257-1.565.486-3.079.679-4.5.132-.955.252-1.879.356-2.749.17-1.423.325-2.894.471-4.5.08-.871.154-1.771.225-2.751h0a160.169,160.169,0,0,0-3.343-46.1l0-.038a5.467,5.467,0,0,0-5.461-5.461Z" transform="translate(-386.083 -374.429)" fill="#3f3d56"/>
    <path id="Path_180" data-name="Path 180" d="M466.816,454.812c-19.847,0-40.877-1.8-68.4-5.411h0a5.792,5.792,0,0,1-5.751-5.169,5.334,5.334,0,0,1-.036-.643V427.032a.865.865,0,0,1,0-.106,5.826,5.826,0,0,1,5.808-5.707c47.886-6.511,76.975-6.51,129.666,0h0a5.824,5.824,0,0,1,5.785,5.724.628.628,0,0,1,0,.087V443.59a5.349,5.349,0,0,1-.036.644,5.8,5.8,0,0,1-5.776,5.169C505.317,453.009,486.658,454.812,466.816,454.812Z" transform="translate(-350.806 -343.173)" fill="#1cc5aa"/>
    <path id="Path_181" data-name="Path 181" d="M593.273,455.272H581.231a5.788,5.788,0,0,1-5.781-5.781V405.742a5.788,5.788,0,0,1,5.781-5.781h12.042a5.787,5.787,0,0,1,5.781,5.781v43.748A5.788,5.788,0,0,1,593.273,455.272Z" transform="translate(-474.079 -332.132)" fill="#3f3d56"/>
    <path id="Path_182" data-name="Path 182" d="M575.83,348.127a15.284,15.284,0,0,0-.459-2.427,15.751,15.751,0,0,0-.893-2.324,13.675,13.675,0,0,0-6.157-6.394,16.418,16.418,0,0,0-10.813-.992,21.366,21.366,0,0,0-8.353,3.911,21.72,21.72,0,0,0-3.484,3.286,42.626,42.626,0,0,0-3.2,5.138,21.389,21.389,0,0,0-4.753-6.8,22.348,22.348,0,0,0-8.188-4.948,20.633,20.633,0,0,0-5.018-1.02,15.973,15.973,0,0,0-5.383.47,13.561,13.561,0,0,0-7.675,5.611,14.154,14.154,0,0,0-2.4,8.633,14.521,14.521,0,0,0,.987,4.508,17.187,17.187,0,0,0,1.079,2.263,17.625,17.625,0,0,0,1.434,2.055,16.248,16.248,0,0,0,7.982,5.315,23.755,23.755,0,0,0,10.338.583,48.655,48.655,0,0,0,10.265-2.9c.444-.167.886-.339,1.329-.509a65.154,65.154,0,0,0,9.041,2.933,27.224,27.224,0,0,0,10.642.427,17.079,17.079,0,0,0,8.825-4.311,15.847,15.847,0,0,0,4.572-7.94A13.7,13.7,0,0,0,575.83,348.127Zm-45.875,13.464a23.732,23.732,0,0,1-5.756.034,17.867,17.867,0,0,1-4-1.065,12.584,12.584,0,0,1-6.744-6.7,13.466,13.466,0,0,1-.816-2.967,12.278,12.278,0,0,1,0-2.722,12.814,12.814,0,0,1,.765-2.778,13.1,13.1,0,0,1,1.437-2.46,12.351,12.351,0,0,1,1.854-1.862,11.282,11.282,0,0,1,2.076-1.216,12.689,12.689,0,0,1,2.715-.726,16.072,16.072,0,0,1,3.786.03,19.579,19.579,0,0,1,4.36,1.2,20.569,20.569,0,0,1,4.2,2.448,20.154,20.154,0,0,1,3.245,3.235,19.887,19.887,0,0,1,2.362,4.068A20.608,20.608,0,0,1,540.7,354.8l0,.023a21.412,21.412,0,0,0-.138,2.433c0,.313.014.626.03.938a1.872,1.872,0,0,0-.367.494,59.2,59.2,0,0,1-7.53,2.388Q531.338,361.394,529.954,361.591ZM572.305,350.9a13.467,13.467,0,0,1-.816,2.967,12.514,12.514,0,0,1-6.744,6.7,17.866,17.866,0,0,1-4,1.065,23.738,23.738,0,0,1-5.766-.035,47.792,47.792,0,0,1-9.885-2.756c-.132-.049-.263-.1-.395-.151a1.839,1.839,0,0,0-.351-.489,21.081,21.081,0,0,0-.105-3.4,20.611,20.611,0,0,1,1.267-4.68,19.886,19.886,0,0,1,2.362-4.068,20.151,20.151,0,0,1,3.245-3.235,20.574,20.574,0,0,1,4.2-2.448,19.584,19.584,0,0,1,4.36-1.2,16.072,16.072,0,0,1,3.786-.03,12.685,12.685,0,0,1,2.715.726,11.271,11.271,0,0,1,2.076,1.217,12.347,12.347,0,0,1,1.853,1.862,13.085,13.085,0,0,1,1.437,2.46,12.814,12.814,0,0,1,.765,2.778A12.28,12.28,0,0,1,572.305,350.9Z" transform="translate(-429.296 -288.669)" fill="#3f3d56"/>
    <circle id="Ellipse_34" data-name="Ellipse 34" cx="2.114" cy="2.114" r="2.114" transform="translate(74.407 120.85)" fill="#1cc5aa"/>
    <circle id="Ellipse_35" data-name="Ellipse 35" cx="2.114" cy="2.114" r="2.114" transform="translate(89.555 115.565)" fill="#1cc5aa"/>
    <circle id="Ellipse_36" data-name="Ellipse 36" cx="2.114" cy="2.114" r="2.114" transform="translate(82.862 132.123)" fill="#1cc5aa"/>
    <circle id="Ellipse_37" data-name="Ellipse 37" cx="2.114" cy="2.114" r="2.114" transform="translate(145.57 120.85)" fill="#1cc5aa"/>
    <circle id="Ellipse_38" data-name="Ellipse 38" cx="2.114" cy="2.114" r="2.114" transform="translate(130.421 115.565)" fill="#1cc5aa"/>
    <circle id="Ellipse_39" data-name="Ellipse 39" cx="2.114" cy="2.114" r="2.114" transform="translate(137.115 132.123)" fill="#1cc5aa"/>
    <circle id="Ellipse_40" data-name="Ellipse 40" cx="2.114" cy="2.114" r="2.114" transform="translate(147.331 157.84)" fill="#1cc5aa"/>
    <circle id="Ellipse_41" data-name="Ellipse 41" cx="2.114" cy="2.114" r="2.114" transform="translate(152.616 142.692)" fill="#1cc5aa"/>
    <circle id="Ellipse_42" data-name="Ellipse 42" cx="2.114" cy="2.114" r="2.114" transform="translate(136.058 149.385)" fill="#1cc5aa"/>
    <circle id="Ellipse_43" data-name="Ellipse 43" cx="2.114" cy="2.114" r="2.114" transform="translate(86.737 157.84)" fill="#1cc5aa"/>
    <circle id="Ellipse_44" data-name="Ellipse 44" cx="2.114" cy="2.114" r="2.114" transform="translate(92.021 142.692)" fill="#1cc5aa"/>
    <circle id="Ellipse_45" data-name="Ellipse 45" cx="2.114" cy="2.114" r="2.114" transform="translate(75.464 149.385)" fill="#1cc5aa"/>
    <path id="Path_2961" data-name="Path 2961" d="M688.034,204.5a5.05,5.05,0,0,0,4.918-.578c1.788-1.333,2.458-3.661,3.019-5.818l1.658-6.384-2.8,1.7a19.661,19.661,0,0,0-5.528,4.341c-1.454,1.856-2.189,4.457-1.231,6.611" transform="translate(-549.724 -191.724)" fill="#f2f2f2"/>
    <path id="Path_2961-2" data-name="Path 2961" d="M438.907,372.021a5.051,5.051,0,0,0,.791-4.888c-.793-2.084-2.847-3.366-4.769-4.5l-5.686-3.343.868,3.159a19.664,19.664,0,0,0,2.661,6.506c1.387,1.906,3.687,3.326,6.021,2.995" transform="translate(-375.496 -304.71)" fill="#f2f2f2"/>
    <path id="Path_2961-3" data-name="Path 2961" d="M848.812,673.772a5.05,5.05,0,0,0,.791-4.888c-.793-2.085-2.847-3.366-4.769-4.5l-5.686-3.343.868,3.159a19.662,19.662,0,0,0,2.661,6.506c1.387,1.906,3.687,3.326,6.021,2.995" transform="translate(-651.883 -508.171)" fill="#f2f2f2"/>
    <circle id="Ellipse_46" data-name="Ellipse 46" cx="2.818" cy="2.818" r="2.818" transform="translate(86.737 35.242)" fill="#fd6584"/>
    <circle id="Ellipse_47" data-name="Ellipse 47" cx="2.818" cy="2.818" r="2.818" transform="translate(11.698 118.384)" fill="#fd6584"/>
    <circle id="Ellipse_48" data-name="Ellipse 48" cx="2.818" cy="2.818" r="2.818" transform="translate(205.46 95.484)" fill="#fd6584"/>
    <circle id="Ellipse_49" data-name="Ellipse 49" cx="2.818" cy="2.818" r="2.818" transform="translate(8.88 47.573)" fill="#e6e6e6"/>
    <circle id="Ellipse_50" data-name="Ellipse 50" cx="2.818" cy="2.818" r="2.818" transform="translate(183.265 127.895)" fill="#e6e6e6"/>
    <circle id="Ellipse_51" data-name="Ellipse 51" cx="2.818" cy="2.818" r="2.818" transform="translate(188.902 42.288)" fill="#e6e6e6"/>
    <path id="Path_183" data-name="Path 183" d="M461.722,465.463a.84.84,0,0,1-1.166.088.938.938,0,0,1,.006-1.359c1.008-1.21,2.674.067,2.9,1.269a3.023,3.023,0,0,1-1.422,3.01,3.253,3.253,0,0,1-3.632-.476,3.927,3.927,0,0,1,.79-6.338,5.493,5.493,0,0,1,4.75.217,39.571,39.571,0,0,1,4.514,2.822,25.169,25.169,0,0,0,10.872,3.712c.676.069.671-.988,0-1.057a24.177,24.177,0,0,1-6.247-1.5,27.446,27.446,0,0,1-5.613-3.081,12.478,12.478,0,0,0-5.794-2.585,5.026,5.026,0,0,0-4.633,2.016,5.132,5.132,0,0,0-.771,4.5,4.754,4.754,0,0,0,3.623,3.12,3.886,3.886,0,0,0,4.1-1.893,3.6,3.6,0,0,0-.437-4.411,2.8,2.8,0,0,0-2.726-.742,2.4,2.4,0,0,0-1.622,2.064A1.9,1.9,0,0,0,462.634,466C463,465.42,462.084,464.889,461.722,465.463Z" transform="translate(-393.576 -372.714)" fill="#3f3d56"/>
    <path id="Path_184" data-name="Path 184" d="M713.413,465.463a.84.84,0,0,0,1.166.088.938.938,0,0,0-.006-1.359c-1.008-1.21-2.675.067-2.9,1.269a3.022,3.022,0,0,0,1.422,3.01,3.253,3.253,0,0,0,3.632-.476,3.927,3.927,0,0,0-.79-6.338,5.494,5.494,0,0,0-4.75.217,39.56,39.56,0,0,0-4.514,2.822,25.169,25.169,0,0,1-10.872,3.712c-.676.069-.671-.988,0-1.057a24.182,24.182,0,0,0,6.247-1.5,27.445,27.445,0,0,0,5.613-3.081,12.479,12.479,0,0,1,5.793-2.585,5.026,5.026,0,0,1,4.633,2.016,5.133,5.133,0,0,1,.771,4.5,4.754,4.754,0,0,1-3.623,3.12,3.886,3.886,0,0,1-4.1-1.893,3.6,3.6,0,0,1,.437-4.411,2.8,2.8,0,0,1,2.726-.742,2.4,2.4,0,0,1,1.622,2.064A1.9,1.9,0,0,1,712.5,466C712.136,465.42,713.05,464.889,713.413,465.463Z" transform="translate(-554.888 -372.714)" fill="#3f3d56"/>
    <path id="Path_185" data-name="Path 185" d="M83.185,33.283l-1.4,1.751-4.937-2.921,1.4-1.751Z" transform="translate(-51.819 -20.472)" fill="#e4e4e4"/>
    <path id="Path_186" data-name="Path 186" d="M101.374,62.43l1.233,1.84L97.42,66.85l-1.233-1.84Z" transform="translate(-64.856 -42.095)" fill="#e4e4e4"/>
    <path id="Path_187" data-name="Path 187" d="M128.085,37.872l2.464.087-.245,5.155-2.464-.087Z" transform="translate(-86.198 -25.536)" fill="#e4e4e4"/>
    <path id="Path_188" data-name="Path 188" d="M618.55,364.236l-1.4,1.751-4.937-2.92,1.4-1.752Z" transform="translate(-412.799 -243.623)" fill="#e4e4e4"/>
    <path id="Path_189" data-name="Path 189" d="M636.739,393.383l1.233,1.84-5.187,2.58-1.233-1.84Z" transform="translate(-425.836 -265.246)" fill="#e4e4e4"/>
    <path id="Path_190" data-name="Path 190" d="M663.449,368.825l2.464.087-.245,5.155-2.464-.087Z" transform="translate(-447.178 -248.687)" fill="#e4e4e4"/>
  </g>
</svg>
