<svg xmlns="http://www.w3.org/2000/svg" width="681.202" height="484.578" viewBox="0 0 681.202 484.578">
  <g id="undraw_stars_re_6je7-2" transform="translate(15.651)">
    <path id="Path_439" data-name="Path 439" d="M778.475,406.618c-2.869,33.132-17.312,65.15-37.916,91.629q-1.292,1.661-2.615,3.292-2.976,3.669-6.107,7.2-3.83,4.349-7.883,8.5-3.3,3.415-6.753,6.683-2.665,2.55-5.391,5c-21.865,19.758-46.984,36.063-72.864,50.322C588.441,607.058,533.082,628.131,475.5,631.2s-117.678-13.428-159.9-52.7c-56.9-52.921-72.787-141.19-49.683-215.384,15.366-49.36,46.73-94.014,89.414-123.177,42.315-28.91,95.7-41.923,146.219-33.417,40.331-24.511,93.129-24.98,136.975-6.837,23.4,9.683,44.392,24.08,62.812,41.477a260.983,260.983,0,0,1,23.626,25.557q1.119,1.373,2.215,2.769,4.591,5.8,8.883,11.844,6.16,8.664,11.7,17.712c1.015,1.661,2.023,3.33,3.007,5.014.661,1.131,1.331,2.269,1.984,3.415a.229.229,0,0,1,.031.077c10.237,18,18.6,37.216,22.965,57.3.769,3.553,1.415,7.122,1.915,10.721v.008q.658,4.58.992,9.206A136.1,136.1,0,0,1,778.475,406.618Z" transform="translate(-191.35 -146.98)" fill="#3f3d56"/>
    <path id="Path_440" data-name="Path 440" d="M705.793,509.126l-114.18-95.119,110.924,98.929a2.647,2.647,0,1,0,3.256-3.81Z" transform="translate(-268.916 -199.4)" fill="#f0f0f0" opacity="0.3"/>
    <circle id="Ellipse_114" data-name="Ellipse 114" cx="68.449" cy="68.449" r="68.449" transform="translate(106.582 124.424)" fill="#f2f2f2"/>
    <path id="Path_441" data-name="Path 441" d="M441.177,361.017a62.339,62.339,0,1,1-55.066-61.958A62.292,62.292,0,0,1,441.177,361.017Z" transform="translate(-205.387 -172.758)" fill="#fff"/>
    <circle id="Ellipse_115" data-name="Ellipse 115" cx="19.227" cy="19.227" r="19.227" transform="translate(143.498 148.266)" fill="#e4e4e4"/>
    <path id="Path_442" data-name="Path 442" d="M467.176,347.792A19.228,19.228,0,0,1,445.949,316.2,62.337,62.337,0,0,1,467.176,347.792Z" transform="translate(-233.817 -176.815)" fill="#f2f2f2"/>
    <circle id="Ellipse_116" data-name="Ellipse 116" cx="6.922" cy="6.922" r="6.922" transform="translate(187.337 202.102)" fill="#e4e4e4"/>
    <path id="Path_443" data-name="Path 443" d="M383.5,455.669a6.956,6.956,0,0,1-.238,1.8,61.165,61.165,0,0,1-13.451-3.261,6.923,6.923,0,0,1,13.69,1.461Z" transform="translate(-217.7 -207.422)" fill="#f2f2f2"/>
    <path id="Path_444" data-name="Path 444" d="M330.456,371.649a13.845,13.845,0,0,1-12.919,13.813A62.717,62.717,0,0,1,318.889,358,13.844,13.844,0,0,1,330.456,371.649Z" transform="translate(-205.416 -186.467)" fill="#f2f2f2"/>
    <circle id="Ellipse_117" data-name="Ellipse 117" cx="2.847" cy="2.847" r="2.847" transform="translate(463.572 157.495)" fill="#1cc5aa"/>
    <circle id="Ellipse_118" data-name="Ellipse 118" cx="1.664" cy="1.664" r="1.664" transform="translate(438.489 90.588)" fill="#f0f0f0"/>
    <circle id="Ellipse_119" data-name="Ellipse 119" cx="1.664" cy="1.664" r="1.664" transform="translate(171.614 416.682)" fill="#f0f0f0"/>
    <circle id="Ellipse_120" data-name="Ellipse 120" cx="1.664" cy="1.664" r="1.664" transform="translate(447.932 253.362)" fill="#f0f0f0"/>
    <circle id="Ellipse_121" data-name="Ellipse 121" cx="2.847" cy="2.847" r="2.847" transform="translate(232.076 266.706)" fill="#1cc5aa"/>
    <path id="orbit" d="M66.321,215.853C36.745,217.109,1.095,222.088.853,238.641.438,267.13,111.532,324.306,299.125,370.1s321.032,46.269,321.612,18.626c.313-14.927-25.875-32.806-50.181-46.177" fill="none" stroke="#1cc5aa" stroke-linecap="round" stroke-width="3"/>
    <circle id="planet" cx="0" cy="0" r="13.446" fill="#1cc5aa"/>
    <circle id="Ellipse_123" data-name="Ellipse 123" cx="1.664" cy="1.664" r="1.664" transform="translate(203.916 333.62)" fill="#f0f0f0"/>
    <circle id="Ellipse_124" data-name="Ellipse 124" cx="1.664" cy="1.664" r="1.664" transform="translate(373.116 73.668)" fill="#f0f0f0"/>
    <circle id="Ellipse_125" data-name="Ellipse 125" cx="1.664" cy="1.664" r="1.664" transform="translate(273.903 428.218)" fill="#f0f0f0"/>
    <circle id="Ellipse_126" data-name="Ellipse 126" cx="1.664" cy="1.664" r="1.664" transform="translate(249.292 89.049)" fill="#f0f0f0"/>
    <circle id="Ellipse_127" data-name="Ellipse 127" cx="1.664" cy="1.664" r="1.664" transform="translate(292.361 169.804)" fill="#f0f0f0"/>
    <circle id="Ellipse_128" data-name="Ellipse 128" cx="1.664" cy="1.664" r="1.664" transform="translate(226.434 367.957)" fill="#f0f0f0"/>
    <circle id="Ellipse_129" data-name="Ellipse 129" cx="1.664" cy="1.664" r="1.664" transform="translate(421.014 378.724)" fill="#f0f0f0"/>
    <circle id="Ellipse_130" data-name="Ellipse 130" cx="1.664" cy="1.664" r="1.664" transform="translate(334.876 281.818)" fill="#f0f0f0"/>
    <circle id="Ellipse_131" data-name="Ellipse 131" cx="1.664" cy="1.664" r="1.664" transform="translate(378.714 169.531)" fill="#f0f0f0"/>
    <circle id="Ellipse_132" data-name="Ellipse 132" cx="3.299" cy="3.299" r="3.299" transform="translate(456.781 221.779)" fill="#ff6584"/>
    <circle id="Ellipse_133" data-name="Ellipse 133" cx="3.299" cy="3.299" r="3.299" transform="translate(322.959 112.569)" fill="#ff6584"/>
    <circle id="Ellipse_134" data-name="Ellipse 134" cx="3.299" cy="3.299" r="3.299" transform="translate(322.959 339.45)" fill="#ff6584"/>
    <path id="Path_445" data-name="Path 445" d="M861.677,605.338a5.917,5.917,0,0,0-5.684,4.292,5.682,5.682,0,0,0-.231,1.63v9.26q3.449-3.265,6.753-6.683,4.049-4.153,7.883-8.5Z" transform="translate(-329.911 -243.58)" fill="#1cc5aa"/>
    <circle id="Ellipse_135" data-name="Ellipse 135" cx="77.294" cy="77.294" r="77.294" transform="translate(472.285 83.278)" fill="#fff"/>
    <path id="Path_447" data-name="Path 447" d="M863.06,241.747a78.167,78.167,0,1,0,55.553,22.894,78.447,78.447,0,0,0-55.553-22.894Zm0,154.587a75.846,75.846,0,1,1,53.926-22.214A76.14,76.14,0,0,1,863.06,396.335Z" transform="translate(-313.481 -159.623)" fill="#2f2e41"/>
    <path id="Path_448" data-name="Path 448" d="M797.542,348.1a1.539,1.539,0,0,1-1.505-1.229,75.117,75.117,0,0,1,17.182-63.939,1.538,1.538,0,0,1,2.3,2.047,71.984,71.984,0,0,0-16.466,61.272,1.54,1.54,0,0,1-1.508,1.848Z" transform="translate(-315.794 -169.014)" fill="#2f2e41"/>
    <circle id="Ellipse_136" data-name="Ellipse 136" cx="49.127" cy="49.127" r="49.127" transform="translate(500.403 134.127)" fill="#1cc5aa"/>
    <path id="Path_449" data-name="Path 449" d="M862.256,387.51c-3.185-.088-7.148-.2-10.2-2.429a7.834,7.834,0,0,1-3.083-5.85,5.27,5.27,0,0,1,1.792-4.328,6.8,6.8,0,0,1,6.433-.926l-2.6-19,1.909-.261,3.057,22.338-1.594-.731c-1.848-.848-4.384-1.279-5.961.053a3.386,3.386,0,0,0-1.11,2.789,5.921,5.921,0,0,0,2.294,4.362c2.376,1.736,5.535,1.959,9.118,2.06Z" transform="translate(-328.34 -185.709)" fill="#2f2e41"/>
    <rect id="Rectangle_28" data-name="Rectangle 28" width="10.376" height="1.927" transform="translate(506.442 170.905)" fill="#2f2e41"/>
    <rect id="Rectangle_29" data-name="Rectangle 29" width="10.376" height="1.927" transform="translate(539.193 170.905)" fill="#2f2e41"/>
    <path id="Path_450" data-name="Path 450" d="M873.983,452.908h-44.53a6.266,6.266,0,0,0-6.26,6.26v98.7a36.662,36.662,0,0,0,19.658,32.456q2.734-2.446,5.391-5,3.449-3.265,6.753-6.683,4.049-4.153,7.883-8.5,3.138-3.53,6.107-7.2,1.327-1.627,2.615-3.292c20.6-26.48,35.047-58.5,37.916-91.629A49.259,49.259,0,0,0,873.983,452.908Z" transform="translate(-322.39 -208.383)" fill="#2f2e41"/>
    <path id="Path_451" data-name="Path 451" d="M867.2,478.724a11.238,11.238,0,0,0-8.022-3.207,11.125,11.125,0,0,0-7.045,2.584,10.092,10.092,0,0,0-.9.823L814.783,516.3l-26.434,27.11a5.23,5.23,0,0,0-.984,1.384,5.611,5.611,0,0,0-.592,2.553,5.513,5.513,0,0,0,1.677,3.9l1.038,1.015,7.537,7.345.008-.008a5.607,5.607,0,0,0,3.584,1.254,5.512,5.512,0,0,0,3.9-1.677l1.223-1.246,8.752-8.975.292-.3L867.4,494.7a11.3,11.3,0,0,0-.2-15.974Z" transform="translate(-313.98 -213.603)" fill="#1cc5aa"/>
    <path id="Path_452" data-name="Path 452" d="M878.84,330.732c1.625-3.435-.041-7.1-2.895-9.3-3.6-2.765-8.246-2.308-12.336-1-4.478,1.433-8.855,4.012-13.693,3.863a8.56,8.56,0,0,1-7.879-5.6c-2.591-6.644.335-14.07,4.845-19.109A26.355,26.355,0,0,1,867.3,290.68a26.649,26.649,0,0,1,21.587,13,1.185,1.185,0,0,0,1.578.414,28.366,28.366,0,0,1,21.837-.549,27.91,27.91,0,0,1,17.366,26.527,1.154,1.154,0,0,0,2.307,0,30.68,30.68,0,0,0-8.152-21.39,29.778,29.778,0,0,0-21.2-9.358A30.253,30.253,0,0,0,889.3,302.1l1.578.414a28.994,28.994,0,0,0-19.3-13.634,28.06,28.06,0,0,0-22.63,5.636c-5.923,4.635-10.412,11.829-10.133,19.543a14.222,14.222,0,0,0,3.431,9.253c2.969,3.186,7.4,3.737,11.5,2.921,5.442-1.085,10.41-4.664,16.083-4.554a7.854,7.854,0,0,1,5.877,2.65,4.89,4.89,0,0,1,1.151,5.238c-.631,1.335,1.357,2.507,1.992,1.165Z" transform="translate(-325.993 -170.397)" fill="#2f2e41"/>
    <path id="orbit2" d="M1421.268,567.571s61.888,5.8,61.888,29.774-105.977,72.232-331.733,92.47-303.252-10-303.252-26.56,44.283-35.707,58.294-40.921" transform="translate(-837.205 -263.711)" fill="none" stroke="#1cc5aa" stroke-linecap="round" stroke-width="3"/>
    <circle id="planet2" cx="0" cy="0" r="13.446"  transform="translate(-837.205 -263.711)"  fill="#1cc5aa"/>
    <circle id="Ellipse_138" data-name="Ellipse 138" cx="13.446" cy="13.446" r="13.446" transform="translate(241.474 0)" fill="#e6e6e6"/>
    <circle id="Ellipse_139" data-name="Ellipse 139" cx="13.446" cy="13.446" r="13.446" transform="translate(-15.651 320.313)" fill="#e6e6e6"/>
    <circle id="Ellipse_140" data-name="Ellipse 140" cx="8.231" cy="8.231" r="8.231" transform="translate(89.795 75.202)" fill="#ff6584"/>
    <circle id="Ellipse_141" data-name="Ellipse 141" cx="8.231" cy="8.231" r="8.231" transform="translate(51.34 387.453)" fill="#ff6584"/>
    <circle id="Ellipse_142" data-name="Ellipse 142" cx="8.231" cy="8.231" r="8.231" transform="translate(612.776 252.862)" fill="#ff6584"/>
    <circle id="Ellipse_143" data-name="Ellipse 143" cx="13.446" cy="13.446" r="13.446" transform="translate(482.968 446.841)" fill="#e6e6e6"/>
    <circle id="Ellipse_144" data-name="Ellipse 144" cx="13.446" cy="13.446" r="13.446" transform="translate(638.659 172.103)" fill="#e6e6e6"/>
  </g>
  <animateMotion href='#planet' dur="60s" begin="0s"  calcMode="linear" keyPoints="0;1" keyTimes="0;1" repeatCount="indefinite">  
  <mpath href="#orbit" />
  </animateMotion>
  <animateMotion href='#planet2' dur="45s"  begin="0s"  calcMode="linear" keyPoints="0;1" keyTimes="0;1" repeatCount="indefinite">  
  <mpath href="#orbit2" />
  </animateMotion>

</svg>
