<svg xmlns="http://www.w3.org/2000/svg" width="439.867" height="331.265" viewBox="0 0 439.867 331.265">
  <g id="undraw_launching_re_tomg" transform="translate(0)">
    <path id="Path_318" data-name="Path 318" d="M466.625,213.831c18.947-12.227,45.042-7.476,63.5,5.479a100.568,100.568,0,0,1,16.5,14.721c2.882,3.161,5.614,6.479,8.227,9.912.644.842,1.285,1.693,1.913,2.552q.645.871,1.279,1.754c5.3,7.366,10.158,15.116,14.915,22.8,11.874,19.17,24.057,38.91,42.148,52.369,3.727,2.772,8.928,5.269,12.746,2.621,3.314-2.3,3.456-7.133,2.7-11.094-2.8-14.677-12.918-26.839-23.662-37.222s-22.639-19.9-30.758-32.447-11.828-29.295-4.717-42.434c6.128-11.323,19.314-17.674,32.185-17.97s25.373,4.71,36.261,11.579,20.461,15.592,30.452,23.711c6.023,4.9,14.432,9.759,21,5.611,5.544-3.5,5.977-11.918,2.672-17.583s-9.2-9.225-14.855-12.545q-26.329-15.468-52.66-30.932c-5.385-3.16-10.888-6.422-14.863-11.241s-6.183-11.585-3.992-17.434c2.162-5.764,8.2-9.423,14.311-10.187s12.264.931,17.975,3.224c21.4,8.6,71.8,64.831,85.234,74.445,8.632,6.175,17.7,13.993,18.573,24.569,1.088,13.167-12.014,24.095-25.165,25.372S692.65,249.02,680.9,242.975s-23.739-12.709-36.927-13.548-27.983,6.21-31.109,19.048c-2.719,11.171,4.192,22.7,13.195,29.845,7.047,5.6,15.316,9.323,23.3,13.513,2.218,1.16,4.413,2.36,6.554,3.642a92.051,92.051,0,0,1,15.287,11.492,93.8,93.8,0,0,1,13.162,15.137,91.5,91.5,0,0,1,7.977,13.877q.514,1.111,1,2.253c.306.728.6,1.465.883,2.21,3.667,9.658,5.095,20.482.411,29.5-4.672,8.992-14.792,14.316-24.9,15.055a45.859,45.859,0,0,1-17.256-2.28,70.07,70.07,0,0,1-11.812-5.077c-17.495-9.391-31.345-24.281-43.995-39.589s-24.555-31.424-39.568-44.417-33.825-22.822-53.682-22.673-40.325,12.245-45.965,31.283c-8.22-14.164-13.779-30.311-13.045-46.67S452.866,222.712,466.625,213.831Z" transform="translate(-303.905 -125.66)" fill="#3f3d56"/>
    <circle id="Ellipse_83" data-name="Ellipse 83" cx="2.182" cy="2.182" r="2.182" transform="translate(237.574 136.731)" fill="#1cc5aa"/>
    <circle id="Ellipse_84" data-name="Ellipse 84" cx="3.373" cy="3.373" r="3.373" transform="translate(154.17 137.467)" fill="#ff6584"/>
    <circle id="Ellipse_85" data-name="Ellipse 85" cx="1.246" cy="1.246" r="1.246" transform="translate(400.076 111.877)" fill="#ff6584"/>
    <circle id="Ellipse_86" data-name="Ellipse 86" cx="1.246" cy="1.246" r="1.246" transform="translate(374.861 44.9)" fill="#ff6584"/>
    <path id="Path_319" data-name="Path 319" d="M842.321,453.961a13.323,13.323,0,0,1,1.42-2.9c2.218,1.16,4.413,2.36,6.554,3.642a92.053,92.053,0,0,1,15.287,11.493,13.29,13.29,0,0,1-23.261-12.232Z" transform="translate(-498.28 -284.886)" fill="#ff6584"/>
    <circle id="Ellipse_87" data-name="Ellipse 87" cx="1.275" cy="1.275" r="1.275" transform="translate(183.832 125.969)" fill="#f0f0f0"/>
    <circle id="Ellipse_88" data-name="Ellipse 88" cx="1.275" cy="1.275" r="1.275" transform="translate(339.984 31.671)" fill="#f0f0f0"/>
    <circle id="Ellipse_89" data-name="Ellipse 89" cx="1.275" cy="1.275" r="1.275" transform="translate(328.509 8.968)" fill="#f0f0f0"/>
    <circle id="Ellipse_90" data-name="Ellipse 90" cx="1.275" cy="1.275" r="1.275" transform="translate(418.758 93.594)" fill="#f0f0f0"/>
    <circle id="Ellipse_91" data-name="Ellipse 91" cx="1.275" cy="1.275" r="1.275" transform="translate(351.808 95.425)" fill="#f0f0f0"/>
    <circle id="Ellipse_92" data-name="Ellipse 92" cx="1.275" cy="1.275" r="1.275" transform="translate(316.282 216.992)" fill="#f0f0f0"/>
    <circle id="Ellipse_93" data-name="Ellipse 93" cx="1.275" cy="1.275" r="1.275" transform="translate(276.231 97.434)" fill="#f0f0f0"/>
    <circle id="Ellipse_94" data-name="Ellipse 94" cx="1.275" cy="1.275" r="1.275" transform="translate(274.441 73.334)" fill="#f0f0f0"/>
    <path id="Path_320" data-name="Path 320" d="M841.367,532.221c-1.893-.078-3.729-.087-5.5-.025-10.906.377-18.171,3.5-19.931,8.573s2.007,12.025,10.335,19.077q1.235,1.046,2.575,2.075a40.868,40.868,0,0,1,12.521-29.7Z" transform="translate(-485.522 -324.568)" fill="none"/>
    <path id="Path_321" data-name="Path 321" d="M843.882,537.579a40.6,40.6,0,0,1,10.261-16.035q.919-.88,1.891-1.7a40.9,40.9,0,0,1,22.727-9.506,91.5,91.5,0,0,1,7.977,13.877q.514,1.111,1,2.253c.306.728.6,1.465.883,2.21,3.667,9.658,5.095,20.482.411,29.5-4.672,8.992-14.792,14.316-24.9,15.055a45.857,45.857,0,0,1-17.256-2.28,40.8,40.8,0,0,1-5.173-17.393c-.05-.769-.075-1.539-.082-2.313a40.691,40.691,0,0,1,2.261-13.665Z" transform="translate(-498.297 -313.892)" fill="#1cc5aa"/>
    <path id="Path_322" data-name="Path 322" d="M812.5,536.94c2.047-5.9,9.706-9.371,21.569-9.781,2.374-.084,4.984.9,7.452.121,11.973-3.8,22.835-1.316,31.7,6.624.306.728.6,1.465.883,2.21-.118-.044-.237-.085-.356-.127-11.981-4.158-23.875-6.585-34.12-7.006-1.893-.076-4.151-1.172-5.5-.024-10.83,9.217-18.155,5.355-19.931,8.573-2.594,4.7,2.008,12.024,10.335,19.077q1.236,1.048,2.574,2.074c.008.774.032,1.544.082,2.313q-2.015-1.489-3.818-3.013C814.317,550.308,810.457,542.835,812.5,536.94Z" transform="translate(-483.788 -321.328)" fill="#e4e4e4"/>
    <circle id="Ellipse_95" data-name="Ellipse 95" cx="1.275" cy="1.275" r="1.275" transform="translate(372.315 254.841)" fill="#f0f0f0"/>
    <circle id="Ellipse_96" data-name="Ellipse 96" cx="1.275" cy="1.275" r="1.275" transform="translate(349.765 238.448)" fill="#f0f0f0"/>
    <circle id="Ellipse_97" data-name="Ellipse 97" cx="12.394" cy="12.394" r="12.394" transform="translate(355.898 219.672)" fill="#f0f0f0"/>
    <path id="Path_323" data-name="Path 323" d="M509.195,311.783c2.9.136,8.89,1.575,15.383,3.435s13.529,4.134,20.478,6.38q18.248,5.9,36.494,11.786,2.508.809,5.031,1.632c.644.842,1.284,1.693,1.913,2.552-1.478-.522-2.962-1.028-4.442-1.51-6.321-2.054-11.807-3.409-17.942-5.278-9.442-2.874-19.4-6.648-29.062-10.162S516.307,313.315,509.195,311.783Z" transform="translate(-335.633 -216.735)" fill="#f0f0f0" opacity="0.3"/>
    <path id="Path_324" data-name="Path 324" d="M932.445,261.335l27.362,45.423-25.819-46.327a.945.945,0,1,0-1.543.9Z" transform="translate(-542.58 -191.237)" fill="#f0f0f0" opacity="0.3"/>
    <circle id="Ellipse_98" data-name="Ellipse 98" cx="1.275" cy="1.275" r="1.275" transform="translate(375.245 201.601)" fill="#f0f0f0"/>
    <circle id="Ellipse_99" data-name="Ellipse 99" cx="8.171" cy="8.171" r="8.171" transform="translate(144.796 183.602)" fill="#1cc5aa"/>
    <path id="Path_325" data-name="Path 325" d="M441.633,468.486a5.842,5.842,0,0,1-3.735-8.143L423.1,445.778l10.551-2.251L446.086,457.7a5.874,5.874,0,0,1-4.453,10.783Z" transform="translate(-293.506 -281.2)" fill="#a0616a"/>
    <path id="Path_326" data-name="Path 326" d="M293.213,270.427l8.251,5.438,9.658,2.262s7.66,54.744,11.424,58.027.592,3.595,1.612,8.124,3.381,13.8,3.381,13.8c-22.928,14.212-43.41,15.947-60.886,2.336a4.112,4.112,0,0,1,1.923-4.783c2.955-1.836-3.454-9.026-1.035-10.466s-1.855-12.212-1.855-12.212l.746-23.133-2.077-3.548,2.925-22.776,7.541-3.351,2.582-7.653Z" transform="translate(-215.827 -196.498)" fill="#1cc5aa"/>
    <path id="Path_327" data-name="Path 327" d="M327.867,274.187l13.6,4.531s15.05-1.589,15.66,20.814-2.195,34.426-2.195,34.426,31.306,62.955-2.606,44.361l-9.91-39.021-10.214-61.281Z" transform="translate(-246.905 -198.338)" fill="#2f2e41"/>
    <path id="Path_328" data-name="Path 328" d="M354.584,331.636l7.057-.975s.681,10.64,4.057,12.252,2.238,1.878,2.636,3.585-3,6.436-.328,7.613,26.044,30.641,26.044,30.641l13.788-12.767c-.948-2.568-5.508-.478-5.794-3.2-.36-4.115-7.577-15.358-9.113-16.8s-.929-3.983-1.725-7.4-.243-.248-1.57-5.938-19.308-34.681-19.933-39.935-7.945-8.346-7.945-8.346l-5.69,1.327Z" transform="translate(-259.979 -206.256)" fill="#2f2e41"/>
    <path id="Path_329" data-name="Path 329" d="M68.581,585.3l8.306,2.181,12.365-31-12.258-3.219Z" transform="translate(-33.558 -270.725)" fill="#a0616a"/>
    <path id="Path_330" data-name="Path 330" d="M232.881,748l25.541,6.707.085-.323a10.279,10.279,0,0,0-7.33-12.552h0l-3.736-4.765-9.634,1.254-2.23-.586Z" transform="translate(-200.426 -424.836)" fill="#2f2e41"/>
    <path id="Path_331" data-name="Path 331" d="M151.955,596.426h8.586l4.085-33.123H151.953Z" transform="translate(-74.354 -275.638)" fill="#a0616a"/>
    <path id="Path_332" data-name="Path 332" d="M320.692,757.691H347.1v-.334a10.279,10.279,0,0,0-10.277-10.278h0L332,743.419l-9,3.66h-2.305Z" transform="translate(-243.394 -427.945)" fill="#2f2e41"/>
    <path id="Path_333" data-name="Path 333" d="M259.848,442.34c-2.074,2.593-1.037,11.409-1.037,11.409s-3.63,28.523-2.074,31.116-1.037,4.667-2.593,8.3-3.112,12.446-3.112,12.446c-8.816,7.26-8.3,40.45-8.3,40.45l-3.112,29.56c1.037,3.112,15.558,3.63,17.632,3.112s22.3-73.64,22.3-73.64-1.037,70.529-1.037,73.64,14,1.556,17.114,1.556S318.449,453.23,318.449,453.23v-7.26l-2.593-3.63S261.922,439.747,259.848,442.34Z" transform="translate(-203.725 -280.055)" fill="#2f2e41"/>
    <path id="Path_334" data-name="Path 334" d="M270.762,277.187,258.026,285.3l-6.16,5.164,8.171,52.089s-12.414,47.348,7.149,44.429,18.467-45.47,18.467-45.47Z" transform="translate(-209.716 -199.806)" fill="#2f2e41"/>
    <path id="Path_335" data-name="Path 335" d="M294.252,410.944a5.842,5.842,0,0,1-8.449-2.979l-20.756.5,5.72-9.148,18.833.926a5.874,5.874,0,0,1,4.651,10.7Z" transform="translate(-216.166 -259.568)" fill="#a0616a"/>
    <circle id="Ellipse_100" data-name="Ellipse 100" cx="16.402" cy="16.402" r="16.402" transform="translate(51.328 37.533)" fill="#a0616a"/>
    <path id="Path_336" data-name="Path 336" d="M263.728,196.449a9.028,9.028,0,0,1,8.649-4.215,11.81,11.81,0,0,1,19.789-6.889,3.673,3.673,0,0,1,3.592-.359,7.573,7.573,0,0,1,2.918,2.342,17,17,0,0,1,2.378,17.29c.41-1.489-1.082-2.889-2.59-3.223s-3.088-.018-4.617-.236c-1.959-.279-3.72-1.415-5.682-1.671a12.936,12.936,0,0,0-4.916.632,13.328,13.328,0,0,1-4.914.66c-1.652-.2-3.779,6.063-3.75,10.471.005.835-.167,1.908-.983,2.085-1.005.218-1.588-1.169-2.545-1.547a1.77,1.77,0,0,0-2.171,1.155,2.886,2.886,0,0,0,.551,2.585,8.529,8.529,0,0,0,2.068,1.794l-.394.328a2.345,2.345,0,0,1-2.96.368,6.389,6.389,0,0,1-2.125-2.42,28.478,28.478,0,0,1-3.9-9.342A13.607,13.607,0,0,1,263.728,196.449Z" transform="translate(-214.602 -153.291)" fill="#2f2e41"/>
    <path id="Path_337" data-name="Path 337" d="M241.635,300.135l-7.371-6.316s-8.606,2.685-10.065,8.331c-11.486,14.686-17.672,31.839-19.333,51.1,15,5.663,33.357,7.673,53.11,8.171l-4.085-15.32L225.8,340.989Z" transform="translate(-186.718 -207.944)" fill="#2f2e41"/>
    <path id="Path_338" data-name="Path 338" d="M207.217,746.423l-3.937-6.327-.786,3.616c-.138.633-.276,1.277-.4,1.915-1.118-.955-2.308-1.839-3.472-2.686q-5.362-3.891-10.719-7.793l1.118,6.486c.689,3.993,1.41,8.069,3.115,11.72.189.414.393.822.613,1.221h16.617a5.358,5.358,0,0,0,.276-1.144.4.4,0,0,0,0-.077C209.9,750.876,208.534,748.542,207.217,746.423Z" transform="translate(-178.415 -423.897)" fill="#f2f2f2"/>
    <path id="Path_339" data-name="Path 339" d="M508.842,722.553l7.449-11.97,1.488,6.84c.261,1.2.522,2.415.763,3.623,2.116-1.807,4.367-3.478,6.569-5.082q10.144-7.362,20.279-14.743l-2.116,12.27c-1.3,7.555-2.667,15.265-5.893,22.172-.358.783-.744,1.556-1.159,2.309H504.784a10.132,10.132,0,0,1-.522-2.164.744.744,0,0,1-.009-.145C503.76,730.978,506.35,726.562,508.842,722.553Z" transform="translate(-333.186 -407.296)" fill="#f2f2f2"/>
    <path id="Path_340" data-name="Path 340" d="M463.449,647.441h-34.2a5.885,5.885,0,0,1-5.879-5.879v-120a5.885,5.885,0,0,1,5.879-5.879h34.2a5.885,5.885,0,0,1,5.879,5.879v120a5.885,5.885,0,0,1-5.879,5.879Z" transform="translate(-293.636 -316.51)" fill="#f2f2f2"/>
    <path id="Path_341" data-name="Path 341" d="M467.116,511.411h-17.54a2.212,2.212,0,0,1-2.21-2.21v-6.3a2.212,2.212,0,0,1,2.21-2.21h17.54a2.212,2.212,0,0,1,2.21,2.21v6.3A2.212,2.212,0,0,1,467.116,511.411Z" transform="translate(-305.379 -309.17)" fill="#3f3d56"/>
    <path id="Path_342" data-name="Path 342" d="M381.229,772.867l-211.292.157a.608.608,0,1,1,0-1.216l211.292-.157a.608.608,0,0,1,0,1.216Z" transform="translate(-169.329 -441.759)" fill="#cacaca"/>
  </g>
</svg>
