<?xml version="1.0" encoding="utf-8"?>
<!-- Generator: Adobe Adobe Illustrator 24.2.0, SVG Export Plug-In . SVG Version: 6.00 Build 0)  -->
<svg version="1.1" id="Logo" xmlns="http://www.w3.org/2000/svg" xmlns:xlink="http://www.w3.org/1999/xlink" x="0px" y="0px"
	 width="218.4px" height="77px" viewBox="0 0 218.4 77" style="enable-background:new 0 0 218.4 77;" xml:space="preserve">
<style type="text/css">
	.st0{enable-background:new    ;}
	.st1{fill:#FFFFFF;}
</style>
<g class="st0">
	<path class="st1" d="M66.9,44l1-0.1c0.6-0.1,0.7-0.3,0.7-1V27.8L67,27.7v-2.5h9.1c4.7,0,7.6,2.2,7.6,6.5c0,4.9-3.5,7.3-8.3,7.3
		h-2.8v4.8l2.9,0.1v2.5h-8.6V44z M74.9,36.1c2.8,0,4.7-1.1,4.7-4.1c0-3.5-1.9-4-4.9-4h-2.1v8.1H74.9z"/>
	<path class="st1" d="M91.2,43.9l1.7,0.1v2.4h-7.2v-2.3l1-0.1c0.6-0.1,0.8-0.3,0.8-1.1V27c0-0.7-0.2-0.9-0.8-0.9l-1-0.1v-2.4h5.6
		V43.9z"/>
	<path class="st1" d="M108.9,43.2c0,0.6,0.2,0.9,0.7,0.9l0.9,0.1v2.3h-4.7l-0.1-1.7l-0.1,0c-0.8,1.2-2.2,2.1-4.4,2.1
		c-4.7,0-6.4-3.3-6.4-7.8c0-5.6,2.8-9.2,8.4-9.2c1.1,0,3.4,0.2,5.7,1.1V43.2z M105.2,33.2c-0.5-0.2-1.4-0.4-2.4-0.4
		c-3.2,0-4.1,2.9-4.1,6.2c0,2.5,0.6,5,3.3,5c2,0,3.2-1.4,3.2-2.9V33.2z"/>
	<path class="st1" d="M121.4,46.5c-1.5,4.2-2.9,6.8-6.7,6.8c-1.5,0-3.1-0.5-4-1.1l1-2.7c0.8,0.4,1.7,0.7,2.7,0.7
		c1.2,0,2-0.8,2.6-2.4l0.6-1.6l-4.9-13.4l-1.4-0.2v-2.4h6.8v2.4l-0.8,0.1c-0.5,0.1-0.7,0.4-0.5,0.9l2.7,8.5h0.1l3.1-9.3l-1.4-0.1
		v-2.5h6.5v2.4l-0.7,0.1c-0.6,0.1-0.8,0.3-1,0.9L121.4,46.5z"/>
	<path class="st1" d="M139.9,40.5c0-2.1-1.8-2.8-4-3.4c-2.9-0.8-6.1-2-6.1-6.1c0-3.9,3-6.3,7.5-6.3c2,0,4.4,0.4,6,1.2v5l-3.1,0.2
		v-2.1c0-0.5-0.1-0.8-0.6-1c-0.5-0.1-1.5-0.3-2.3-0.3c-1.7,0-3.5,0.6-3.5,2.7c0,2,1.7,2.7,4.2,3.4c2.9,0.9,6,2,6,6.2
		c0,4.2-2.8,6.6-7.9,6.6c-2.2,0-4.6-0.3-6.3-1.1v-5.2l3.1-0.3v2.2c0,0.5,0.1,0.8,0.6,1c0.5,0.2,1.6,0.3,2.5,0.3
		C138,43.7,139.9,43,139.9,40.5z"/>
	<path class="st1" d="M147.9,33.7c0-0.7-0.2-0.9-0.8-0.9l-1-0.1v-2.4h5.3v2.1c0,0,0,0,0.1,0c1-1.9,2.9-2.5,4.7-2.5
		c3.9,0,5.8,3,5.8,8.1c0,5.6-2.4,8.9-6.8,8.9c-1.3,0-2.6-0.4-3.5-0.9v4.5l2.6,0.2V53h-8.1v-2.3l1-0.1c0.6-0.1,0.8-0.3,0.8-1.1V33.7z
		 M151.6,42.9c0.7,0.6,1.9,1,2.9,1c2.6,0,3.5-2.5,3.5-5.6c0-3.1-0.6-5.5-3.1-5.5c-2.3,0-3.3,1.8-3.3,2.9V42.9z"/>
	<path class="st1" d="M178.2,43.2c0,0.6,0.2,0.9,0.7,0.9l0.9,0.1v2.3h-4.7l-0.1-1.7l-0.1,0c-0.8,1.2-2.2,2.1-4.4,2.1
		c-4.7,0-6.4-3.3-6.4-7.8c0-5.6,2.8-9.2,8.4-9.2c1.1,0,3.4,0.2,5.7,1.1V43.2z M174.5,33.2c-0.5-0.2-1.4-0.4-2.4-0.4
		c-3.2,0-4.1,2.9-4.1,6.2c0,2.5,0.6,5,3.3,5c2,0,3.2-1.4,3.2-2.9V33.2z"/>
	<path class="st1" d="M185.9,38.3c0,3.2,1.2,5.5,4,5.5c1.2,0,2.5-0.4,3.8-1.4l1.4,2.6c-1.2,1-3.2,2-5.7,2c-4.7,0-7.4-2.9-7.4-8.4
		c0-6.4,4-8.6,7.7-8.6c2,0,3.7,0.4,5,1.2v4.5l-3,0.2V34c0-0.5-0.1-0.8-0.5-1c-0.4-0.1-0.9-0.2-1.2-0.2
		C187.4,32.9,185.9,34.5,185.9,38.3z"/>
	<path class="st1" d="M209.9,34.4c0,4.6-3.9,5.7-9.3,5.5c0.2,2.1,1.2,4,4,4c1.9,0,3.2-0.8,4-1.3l1.1,2.7c-0.5,0.4-2.6,1.6-5.6,1.6
		c-5.4,0-7.4-3.5-7.4-8.1c0-5,2.8-8.9,7.9-8.9C207.9,29.9,209.9,31.4,209.9,34.4z M204.5,32.7c-2.6,0-3.7,2.4-3.9,4.5
		c0.4,0,0.9,0,1.3,0c2.8,0,4.6-0.7,4.6-2.6C206.5,33.2,205.7,32.7,204.5,32.7z"/>
</g>
<g>
	<g>
		<g id="Group_7_" transform="translate(-35.428 348.759) rotate(-90)">
			<path class="st1" d="M290.2,88.9c0.3,0,0.5,0.1,0.7,0.3c0.4,0.4,0.4,1,0,1.4l-2.7,2.7c-0.4,0.4-1,0.4-1.4,0s-0.4-1,0-1.4l2.7-2.7
				C289.7,89,290,88.9,290.2,88.9z"/>
		</g>
		<g id="Group_6_" transform="translate(-35.428 348.759) rotate(-90)">
			<path class="st1" d="M291.2,49.8c0,0.3-0.1,0.5-0.3,0.7c-0.4,0.4-1,0.4-1.4,0l-2.7-2.7c-0.4-0.4-0.4-1,0-1.4c0.4-0.4,1-0.4,1.4,0
				l2.7,2.7C291.1,49.3,291.2,49.5,291.2,49.8z"/>
		</g>
		<g id="Group_5_" transform="translate(-35.428 348.759) rotate(-90)">
			<path class="st1" d="M330.3,50.8c-0.3,0-0.5-0.1-0.7-0.3c-0.4-0.4-0.4-1,0-1.4l2.7-2.7c0.4-0.4,1-0.4,1.4,0c0.4,0.4,0.4,1,0,1.4
				l-2.7,2.7C330.8,50.7,330.6,50.8,330.3,50.8z"/>
		</g>
		<g id="Group_4_" transform="translate(-35.428 348.759) rotate(-90)">
			<path class="st1" d="M329.3,89.9c0-0.3,0.1-0.5,0.3-0.7c0.4-0.4,1-0.4,1.4,0l2.7,2.7c0.4,0.4,0.4,1,0,1.4c-0.4,0.4-1,0.4-1.4,0
				l-2.7-2.7C329.4,90.4,329.3,90.2,329.3,89.9z"/>
		</g>
	</g>
	<g id="Ellipse_1_3_" transform="translate(38.482 10.037) rotate(45)">
		<path class="st1" d="M16.8,42.9c-0.2,0.2-0.5,0.3-0.8,0.3C5.8,42.6-2.4,34.4-3,24.2c0-0.6,0.4-1,0.9-1.1c0.6,0,1,0.4,1.1,0.9
			c0.5,9.3,7.9,16.6,17.2,17.2c0.6,0,1,0.5,0.9,1.1C17.1,42.5,17,42.8,16.8,42.9z"/>
		<path class="st1" d="M31.6,37.3c-0.9,0.9-1.8,1.7-2.8,2.4c-0.5,0.3-1.1,0.2-1.4-0.3C27,39,27.1,38.4,27.6,38c5-3.4,7.9-9,7.9-15.1
			c0-2.8-0.6-5.5-1.8-7.9c-0.2-0.5,0-1.1,0.5-1.3c0.5-0.2,1.1,0,1.3,0.5c1.3,2.8,2,5.7,2,8.8C37.5,28.4,35.4,33.6,31.6,37.3z"/>
		<path class="st1" d="M25.9,6.1c-0.3,0.3-0.7,0.4-1.1,0.2c-2.4-1.1-4.9-1.6-7.5-1.6c-6.1,0-11.7,3-15.2,8.1
			c-0.3,0.5-0.9,0.6-1.4,0.3s-0.6-0.9-0.3-1.4C4.2,6,10.5,2.7,17.2,2.7c2.9,0,5.7,0.6,8.4,1.8c0.5,0.2,0.7,0.8,0.5,1.3
			C26.1,5.9,26,6,25.9,6.1z"/>
	</g>
	<g id="Polygon_1_3_" transform="translate(69.35 11.982) rotate(90)">
		<path class="st1" d="M26.5,12.9c-1.8,0-3.5,0.9-4.4,2.5L7.6,40.6c-0.9,1.6-0.9,3.5,0,5c0.9,1.6,2.5,2.5,4.4,2.5h29
			c1.8,0,3.5-0.9,4.4-2.5c0.9-1.6,0.9-3.5,0-5L30.9,15.4C30,13.8,28.3,12.9,26.5,12.9 M26.5,10.9c2.4,0,4.8,1.2,6.1,3.5l14.5,25.2
			c2.7,4.7-0.7,10.6-6.1,10.6H12c-5.4,0-8.8-5.9-6.1-10.6l14.5-25.2C21.7,12.1,24.1,10.9,26.5,10.9z"/>
	</g>
	<g>
		<path class="st1" d="M44.9,38.7c-0.4,0-0.7-0.2-0.9-0.5c-0.3-0.5-0.1-1.1,0.4-1.4c8.7-4.6,12.7-8,13.7-9.4
			c-1.3-0.1-4.5,0.4-7.2,0.9c-0.5,0.1-1.1-0.2-1.2-0.8c-0.1-0.5,0.2-1.1,0.8-1.2c3.6-0.8,8.2-1.5,9.4-0.4c0.4,0.3,0.5,0.8,0.5,1.3
			c-0.3,2.3-6.2,6.7-15,11.4C45.2,38.7,45.1,38.7,44.9,38.7z"/>
		<path class="st1" d="M11.9,49.9c-1.7,0-2.8-0.3-3.2-0.9c-0.2-0.2-0.3-0.6-0.2-1.2c0.4-1.8,4.1-4.4,5.7-5.5
			c0.5-0.3,1.1-0.2,1.4,0.3c0.3,0.5,0.2,1.1-0.3,1.4c-2.1,1.4-4.1,3-4.7,3.9c1.9,0.3,9.1-0.3,21.8-5.4c0.5-0.2,1.1,0,1.3,0.6
			c0.2,0.5,0,1.1-0.6,1.3C24.5,47.8,16.3,49.9,11.9,49.9z M10.2,47.7L10.2,47.7z"/>
		<g id="Ellipse_11_1_" transform="translate(41.35 36.982)">
			<circle class="st1" cx="-2.5" cy="3.7" r="3.5"/>
		</g>
	</g>
</g>
</svg>
