<?xml version="1.0" encoding="utf-8"?>
<!-- Generator: Adobe Adobe Illustrator 24.2.0, SVG Export Plug-In . SVG Version: 6.00 Build 0)  -->
<svg version="1.1" id="Logo" xmlns="http://www.w3.org/2000/svg" xmlns:xlink="http://www.w3.org/1999/xlink" x="0px" y="0px"
	 width="201.8px" height="47.7px" viewBox="0 0 201.8 47.7" style="enable-background:new 0 0 201.8 47.7;" xml:space="preserve">
<style type="text/css">
	.st0{enable-background:new    ;}
	.st1{fill:#3F3D56;}
	.st2{fill:#FFFFFF;}
</style>
<g class="st0">
	<path class="st1" d="M58.6,29.4l1-0.1c0.6-0.1,0.7-0.3,0.7-1V13.2L58.7,13v-2.5h9.1c4.7,0,7.6,2.2,7.6,6.5c0,4.9-3.5,7.3-8.3,7.3
		h-2.8v4.8l2.9,0.1v2.5h-8.6V29.4z M66.6,21.5c2.8,0,4.7-1.1,4.7-4.1c0-3.5-1.9-4-4.9-4h-2.1v8.1H66.6z"/>
	<path class="st1" d="M82.9,29.3l1.7,0.1v2.4h-7.2v-2.3l1-0.1c0.6-0.1,0.8-0.3,0.8-1.1V12.4c0-0.7-0.2-0.9-0.8-0.9l-1-0.1V9h5.6
		V29.3z"/>
	<path class="st1" d="M100.6,28.5c0,0.6,0.2,0.9,0.7,0.9l0.9,0.1v2.3h-4.7l-0.1-1.7l-0.1,0c-0.8,1.2-2.2,2.1-4.4,2.1
		c-4.7,0-6.4-3.3-6.4-7.8c0-5.6,2.8-9.2,8.4-9.2c1.1,0,3.4,0.2,5.7,1.1V28.5z M96.9,18.5c-0.5-0.2-1.4-0.4-2.4-0.4
		c-3.2,0-4.1,2.9-4.1,6.2c0,2.5,0.6,5,3.3,5c2,0,3.2-1.4,3.2-2.9V18.5z"/>
	<path class="st1" d="M113.1,31.9c-1.5,4.2-2.9,6.8-6.7,6.8c-1.5,0-3.1-0.5-4-1.1l1-2.7c0.8,0.4,1.7,0.7,2.7,0.7
		c1.2,0,2-0.8,2.6-2.4l0.6-1.6l-4.9-13.4L103,18v-2.4h6.8v2.4l-0.8,0.1c-0.5,0.1-0.7,0.4-0.5,0.9l2.7,8.5h0.1l3.1-9.3l-1.4-0.1v-2.5
		h6.5V18l-0.7,0.1c-0.6,0.1-0.8,0.3-1,0.9L113.1,31.9z"/>
	<path class="st1" d="M131.5,25.9c0-2.1-1.8-2.8-4-3.4c-2.9-0.8-6.1-2-6.1-6.1c0-3.9,3-6.3,7.5-6.3c2,0,4.4,0.4,6,1.2v5l-3.1,0.2
		v-2.1c0-0.5-0.1-0.8-0.6-1c-0.5-0.1-1.5-0.3-2.3-0.3c-1.7,0-3.5,0.6-3.5,2.7c0,2,1.7,2.7,4.2,3.4c2.9,0.9,6,2,6,6.2
		c0,4.2-2.8,6.6-7.9,6.6c-2.2,0-4.6-0.3-6.3-1.1v-5.2l3.1-0.3v2.2c0,0.5,0.1,0.8,0.6,1c0.5,0.2,1.6,0.3,2.5,0.3
		C129.7,29.1,131.5,28.4,131.5,25.9z"/>
	<path class="st1" d="M139.5,19.1c0-0.7-0.2-0.9-0.8-0.9l-1-0.1v-2.4h5.3v2.1c0,0,0,0,0.1,0c1-1.9,2.9-2.5,4.7-2.5
		c3.9,0,5.8,3,5.8,8.1c0,5.6-2.4,8.9-6.8,8.9c-1.3,0-2.6-0.4-3.5-0.9v4.5l2.6,0.2v2.4h-8.1v-2.3l1-0.1c0.6-0.1,0.8-0.3,0.8-1.1V19.1
		z M143.3,28.3c0.7,0.6,1.9,1,2.9,1c2.6,0,3.5-2.5,3.5-5.6c0-3.1-0.6-5.5-3.1-5.5c-2.3,0-3.3,1.8-3.3,2.9V28.3z"/>
	<path class="st1" d="M169.9,28.5c0,0.6,0.2,0.9,0.7,0.9l0.9,0.1v2.3h-4.7l-0.1-1.7l-0.1,0c-0.8,1.2-2.2,2.1-4.4,2.1
		c-4.7,0-6.4-3.3-6.4-7.8c0-5.6,2.8-9.2,8.4-9.2c1.1,0,3.4,0.2,5.7,1.1V28.5z M166.2,18.5c-0.5-0.2-1.4-0.4-2.4-0.4
		c-3.2,0-4.1,2.9-4.1,6.2c0,2.5,0.6,5,3.3,5c2,0,3.2-1.4,3.2-2.9V18.5z"/>
	<path class="st1" d="M177.6,23.7c0,3.2,1.2,5.5,4,5.5c1.2,0,2.5-0.4,3.8-1.4l1.4,2.6c-1.2,1-3.2,2-5.7,2c-4.7,0-7.4-2.9-7.4-8.4
		c0-6.4,4-8.6,7.7-8.6c2,0,3.7,0.4,5,1.2V21l-3,0.2v-1.9c0-0.5-0.1-0.8-0.5-1c-0.4-0.1-0.9-0.2-1.2-0.2
		C179.1,18.3,177.6,19.9,177.6,23.7z"/>
	<path class="st1" d="M201.6,19.8c0,4.6-3.9,5.7-9.3,5.5c0.2,2.1,1.2,4,4,4c1.9,0,3.2-0.8,4-1.3l1.1,2.7c-0.5,0.4-2.6,1.6-5.6,1.6
		c-5.4,0-7.4-3.5-7.4-8.1c0-5,2.8-8.9,7.9-8.9C199.6,15.2,201.6,16.8,201.6,19.8z M196.2,18.1c-2.6,0-3.7,2.4-3.9,4.5
		c0.4,0,0.9,0,1.3,0c2.8,0,4.6-0.7,4.6-2.6C198.2,18.6,197.4,18.1,196.2,18.1z"/>
</g>
<g>
	<g>
		<g id="Group_13_" transform="translate(-35.428 348.759) rotate(-90)">
			<path class="st1" d="M304.9,80.6c0.3,0,0.5,0.1,0.7,0.3c0.4,0.4,0.4,1,0,1.4l-2.7,2.7c-0.4,0.4-1,0.4-1.4,0c-0.4-0.4-0.4-1,0-1.4
				l2.7-2.7C304.3,80.7,304.6,80.6,304.9,80.6z"/>
		</g>
		<g id="Group_12_" transform="translate(-35.428 348.759) rotate(-90)">
			<path class="st1" d="M305.9,41.5c0,0.3-0.1,0.5-0.3,0.7c-0.4,0.4-1,0.4-1.4,0l-2.7-2.7c-0.4-0.4-0.4-1,0-1.4c0.4-0.4,1-0.4,1.4,0
				l2.7,2.7C305.8,41,305.9,41.2,305.9,41.5z"/>
		</g>
		<g id="Group_11_" transform="translate(-35.428 348.759) rotate(-90)">
			<path class="st1" d="M345,42.5c-0.3,0-0.5-0.1-0.7-0.3c-0.4-0.4-0.4-1,0-1.4l2.7-2.7c0.4-0.4,1-0.4,1.4,0c0.4,0.4,0.4,1,0,1.4
				l-2.7,2.7C345.5,42.4,345.2,42.5,345,42.5z"/>
		</g>
		<g id="Group_2_" transform="translate(-35.428 348.759) rotate(-90)">
			<path class="st1" d="M344,81.6c0-0.3,0.1-0.5,0.3-0.7c0.4-0.4,1-0.4,1.4,0l2.7,2.7c0.4,0.4,0.4,1,0,1.4c-0.4,0.4-1,0.4-1.4,0
				l-2.7-2.7C344.1,82.1,344,81.8,344,81.6z"/>
		</g>
	</g>
	<g id="Ellipse_1_1_" transform="translate(38.482 10.037) rotate(45)">
		<path class="st1" d="M0.6,38.5c-0.2,0.2-0.5,0.3-0.8,0.3c-10.3-0.6-18.5-8.8-19.1-19.1c0-0.6,0.4-1,0.9-1.1c0.6,0,1,0.4,1.1,0.9
			c0.5,9.3,7.9,16.6,17.2,17.2c0.6,0,1,0.5,0.9,1.1C0.9,38.1,0.8,38.3,0.6,38.5z"/>
		<path class="st1" d="M15.4,32.9c-0.9,0.9-1.8,1.7-2.8,2.4c-0.5,0.3-1.1,0.2-1.4-0.3s-0.2-1.1,0.3-1.4c5-3.4,7.9-9,7.9-15.1
			c0-2.8-0.6-5.5-1.8-7.9c-0.2-0.5,0-1.1,0.5-1.3c0.5-0.2,1.1,0,1.3,0.5c1.3,2.8,2,5.7,2,8.8C21.3,24,19.1,29.1,15.4,32.9z"/>
		<path class="st1" d="M9.7,1.7C9.4,2,8.9,2,8.5,1.9C6.2,0.8,3.6,0.3,1,0.3c-6.1,0-11.7,3-15.2,8.1c-0.3,0.5-0.9,0.6-1.4,0.3
			s-0.6-0.9-0.3-1.4C-12,1.6-5.7-1.8,1-1.8c2.9,0,5.7,0.6,8.4,1.8c0.5,0.2,0.7,0.8,0.5,1.3C9.8,1.5,9.8,1.6,9.7,1.7z"/>
	</g>
	<g id="Polygon_1_1_" transform="translate(69.35 11.982) rotate(90)">
		<path class="st1" d="M11.9,21.2c-1.8,0-3.5,0.9-4.4,2.5L-7,48.9c-0.9,1.6-0.9,3.5,0,5c0.9,1.6,2.5,2.5,4.4,2.5h29
			c1.8,0,3.5-0.9,4.4-2.5c0.9-1.6,0.9-3.5,0-5L16.2,23.7C15.3,22.2,13.7,21.2,11.9,21.2 M11.9,19.2c2.4,0,4.8,1.2,6.1,3.5l14.5,25.2
			c2.7,4.7-0.7,10.6-6.1,10.6h-29c-5.4,0-8.8-5.9-6.1-10.6L5.7,22.7C7.1,20.4,9.5,19.2,11.9,19.2z"/>
	</g>
	<g>
		<path class="st1" d="M36.6,24.1c-0.4,0-0.7-0.2-0.9-0.5c-0.3-0.5-0.1-1.1,0.4-1.4c8.7-4.6,12.7-8,13.7-9.4
			c-1.3-0.1-4.5,0.4-7.2,0.9c-0.5,0.1-1.1-0.2-1.2-0.8c-0.1-0.5,0.2-1.1,0.8-1.2c3.6-0.8,8.2-1.5,9.4-0.4c0.4,0.3,0.5,0.8,0.5,1.3
			c-0.3,2.3-6.2,6.7-15,11.4C36.9,24,36.8,24.1,36.6,24.1z"/>
		<path class="st1" d="M3.6,35.3c-1.7,0-2.8-0.3-3.2-0.9c-0.2-0.2-0.3-0.6-0.2-1.2c0.4-1.8,4.1-4.4,5.7-5.5c0.5-0.3,1.1-0.2,1.4,0.3
			C7.6,28.4,7.4,29,7,29.3c-2.1,1.4-4.1,3-4.7,3.9c1.9,0.3,9.1-0.3,21.8-5.4c0.5-0.2,1.1,0,1.3,0.6c0.2,0.5,0,1.1-0.6,1.3
			C16.1,33.2,8,35.3,3.6,35.3z M1.9,33.1L1.9,33.1z"/>
		<g id="Ellipse_11_2_" transform="translate(41.35 36.982)">
			<circle class="st1" cx="-10.8" cy="-11" r="3.5"/>
		</g>
	</g>
</g>
</svg>
