<svg xmlns="http://www.w3.org/2000/svg" width="218.852" height="200.369" viewBox="0 0 218.852 200.369">
  <g id="undraw_outer_space_re_u9vd" transform="translate(0 0)">
    <path id="Path_110" data-name="Path 110" d="M716.173,648.444l2.1,4.716a3.025,3.025,0,0,0-3.335,3.063,4.243,4.243,0,0,0,3.2,4.092c-.327,1.456-1.737,2.1-2.961,2.686s-2.543,1.564-2.452,3.115a3.476,3.476,0,0,0,2.2,2.787,7.407,7.407,0,0,0,3.349.3c-1.678,1.756-1.842,5.056-.368,7.424s4.418,3.533,6.622,2.622c-1.557,1.937-1.219,5.485.714,7.485,1.948,2.016,4.772,2.211,7.241,2a32.071,32.071,0,0,0,17.221-6.824,15.849,15.849,0,0,0,4.727-5.564,10.182,10.182,0,0,0,.391-7.831c.27,3.279,3.553,5.87,6.506,6.014s5.531-1.518,7.722-3.415c2.914-2.522,5.611-6.058,5.211-10.42a19.728,19.728,0,0,0-2.066-6.248l-1.794-3.9a20.207,20.207,0,0,0-2.554-4.5,5.707,5.707,0,0,0-4.116-2.335,12.68,12.68,0,0,0,.4-4.9c-.29-1.68-1.4-3.42-2.911-3.813-1.922-.5-3.552,1.273-5.485,1.106-1.86-.161-3.4-2.028-5.2-2.768a4.166,4.166,0,0,0-4.5.778,5.179,5.179,0,0,0-1.212,4.794,34.734,34.734,0,0,0,1.9,4.456c.582,1.51.672,3.451-.445,4.276-1.348,1-3.4-.359-4.452-2s-1.657-3.622-2.989-5a4.491,4.491,0,0,0-5.649-.875,5.071,5.071,0,0,0-1.421,5.821c.667,1.762,2.195,3.544,1.665,5.2-.56,1.753-3.01,1.531-4.488.292s-2.459-3.106-3.919-4.373a6.073,6.073,0,0,0-5.119-1.491,5.27,5.27,0,0,0-3.777,3.375" transform="translate(-575.96 -488.428)" fill="#e6e6e6"/>
    <path id="Path_111" data-name="Path 111" d="M840.169,618.691l-4.364,2.027a3.351,3.351,0,0,1-2.118.286,1.444,1.444,0,0,1-1.174-1.063L831.5,615.2a2.566,2.566,0,0,1,1.762-2.516l2.41-1.12a2.566,2.566,0,0,1,3.059.277l2.969,3.834a1.443,1.443,0,0,1,.055,1.583A3.348,3.348,0,0,1,840.169,618.691Z" transform="translate(-665.907 -471.927)" fill="#3f3d56"/>
    <path id="Path_112" data-name="Path 112" d="M292.771,96.013a85.85,85.85,0,0,1,18.8-30.086c7.035-7.3,17.983-7,17.983-7l.063-.078a21.24,21.24,0,0,1,22.446-7.012,4.733,4.733,0,0,0,2.229.3c6.962-2.437,6.635-7.936,12.642-12.367,10.517-7.757,45.4,1.129,50.321,15.4,3.987,11.569,21.783,17.177,28.432,26.026q1.559,2.076,3.06,4.2.7.987,1.391,1.988a177.139,177.139,0,0,1,12.647,21.379,124.674,124.674,0,0,1,6.33,14.96c6.934,20.27,4.563,35.372-14.556,31.641q-3.395-.664-6.627-1.189-4.68-.764-9.033-1.255-5.862-.667-11.154-.874-1.78-.072-3.494-.1c-16.9-.234-29.429,2.946-38.977,7.882q-2.428,1.252-4.6,2.649a57.248,57.248,0,0,0-6.325,4.685,61.823,61.823,0,0,0-7.621,7.808l-.127.155c-11.167,13.66-14.843,28.782-22.611,31.445-33.207,11.384-54.209-29.883-56.363-70.251q-.163-3.051-.18-6.085-.01-1.356.013-2.7c.034-2.346.137-4.677.311-6.98q.1-1.321.225-2.627c.094-.939.2-1.873.315-2.8A86.848,86.848,0,0,1,292.771,96.013Z" transform="translate(-253.813 -36.897)" fill="#1cc5aa"/>
    <path id="Path_113" data-name="Path 113" d="M726.521,371.445c-2.652,1.235-2.7,6.765-1.864,8.557l1.507,3.243,9.606-4.463-1.507-3.243C733.429,373.748,729.175,370.214,726.521,371.445Z" transform="translate(-584.638 -290.118)" fill="#3f3d56"/>
    <path id="Path_114" data-name="Path 114" d="M624.111,485.7a1.05,1.05,0,0,1-.443-2l49.608-23.048a1.05,1.05,0,0,1,.885,1.9h0L624.553,485.6A1.042,1.042,0,0,1,624.111,485.7Z" transform="translate(-508.041 -357.81)" fill="#3f3d56"/>
    <rect id="Rectangle_8" data-name="Rectangle 8" width="15.636" height="52.791" transform="translate(140.695 97.32) rotate(-24.92)" fill="#e6e6e6"/>
    <path id="Path_115" data-name="Path 115" d="M560.592,161.719c-2.652,1.235-2.7,6.765-1.864,8.557l1.507,3.243,9.606-4.463-1.507-3.243C567.5,164.021,563.245,160.488,560.592,161.719Z" transform="translate(-458.949 -131.254)" fill="#3f3d56"/>
    <path id="Path_116" data-name="Path 116" d="M785.742,641.386l-4.363,2.027a3.349,3.349,0,0,1-2.118.286,1.444,1.444,0,0,1-1.174-1.063l-1.015-4.742a2.566,2.566,0,0,1,1.762-2.516l2.41-1.12a2.566,2.566,0,0,1,3.059.276l2.969,3.834a1.444,1.444,0,0,1,.055,1.583A3.351,3.351,0,0,1,785.742,641.386Z" transform="translate(-624.68 -489.118)" fill="#3f3d56"/>
    <path id="Path_117" data-name="Path 117" d="M730.423,668.832l-4.364,2.027a3.351,3.351,0,0,1-2.118.286,1.444,1.444,0,0,1-1.174-1.063l-1.015-4.742a2.566,2.566,0,0,1,1.762-2.516l2.41-1.119a2.566,2.566,0,0,1,3.059.276l2.97,3.834a1.444,1.444,0,0,1,.055,1.583A3.349,3.349,0,0,1,730.423,668.832Z" transform="translate(-582.777 -509.908)" fill="#3f3d56"/>
    <rect id="Rectangle_9" data-name="Rectangle 9" width="15.636" height="106.711" transform="translate(104.237 54.602) rotate(-24.92)" fill="#e6e6e6"/>
    <path id="Path_118" data-name="Path 118" d="M543.981,391.436l-1.591-3.5.916-.423,1.586,3.49,22.97,50.93-.915.425" transform="translate(-410.851 -293.534)" fill="#3f3d56"/>
    <path id="Path_119" data-name="Path 119" d="M617.981,379.436l-1.591-3.5.916-.422,1.586,3.49,22.97,50.93-.915.425" transform="translate(-466.905 -284.444)" fill="#3f3d56"/>
    <path id="Path_120" data-name="Path 120" d="M589.965,221.383l-19.214,8.927c-1.223-1.9-4.911-11.655-4.083-14.549L566.047,213l13.266-6.164,1.776,2.184C583.726,209.831,588.857,218.992,589.965,221.383Z" transform="translate(-464.856 -165.625)" fill="#e6e6e6"/>
    <path id="Path_121" data-name="Path 121" d="M574.171,186.135l-13.69,6.361c-.505.235-1.043.148-1.2-.193a.469.469,0,0,1-.042-.156l-.709-7.559a1.01,1.01,0,0,1,.67-.887l9.079-4.218a1.011,1.011,0,0,1,1.11.06l5.32,5.416c.272.277.124.751-.33,1.059A1.484,1.484,0,0,1,574.171,186.135Z" transform="translate(-459.158 -144.804)" fill="#e6e6e6"/>
    <path id="Path_122" data-name="Path 122" d="M636.487,367.725a1.85,1.85,0,0,1-.44-.052,1.359,1.359,0,0,1-.945-.734l-8.37-18.015a1.693,1.693,0,0,1,1.037-2.126l12.256-5.694a1.693,1.693,0,0,1,2.293.579l8.37,18.015a1.359,1.359,0,0,1-.049,1.2,2.063,2.063,0,0,1-.988.931L637.4,367.518A2.163,2.163,0,0,1,636.487,367.725Z" transform="translate(-510.736 -267.173)" fill="#3f3d56"/>
    <rect id="Rectangle_10" data-name="Rectangle 10" width="15.636" height="52.791" transform="translate(113.248 109.867) rotate(-24.92)" fill="#e6e6e6"/>
    <path id="Path_123" data-name="Path 123" d="M580.77,197.369l-4.158,1.932c-.8.373-1.885-.248-2.413-1.385s-.3-2.364.5-2.737l4.159-1.932c.8-.373,1.885.248,2.413,1.385S581.572,197,580.77,197.369Z" transform="translate(-470.813 -155.247)" fill="#3f3d56"/>
    <path id="Path_124" data-name="Path 124" d="M614.486,422.648c-2.652,1.235-2.7,6.765-1.864,8.557l1.507,3.243,9.606-4.463-1.507-3.244C621.395,424.951,617.14,421.418,614.486,422.648Z" transform="translate(-499.774 -328.904)" fill="#3f3d56"/>
    <path id="Path_125" data-name="Path 125" d="M435.98,372.9a.868.868,0,0,1-.94-1.458A.868.868,0,0,1,435.98,372.9Z" transform="translate(-365.32 -290.198)" fill="#e6e6e6"/>
    <path id="Path_126" data-name="Path 126" d="M837.98,284.9a.868.868,0,0,1-.941-1.458A.868.868,0,0,1,837.98,284.9Z" transform="translate(-669.828 -223.54)" fill="#e6e6e6"/>
    <path id="Path_127" data-name="Path 127" d="M563.98,354.9a.868.868,0,0,1-.941-1.458A.868.868,0,0,1,563.98,354.9Z" transform="translate(-462.278 -276.563)" fill="#e6e6e6"/>
    <path id="Path_128" data-name="Path 128" d="M435.98,594.9a.868.868,0,0,1-.94-1.458A.868.868,0,0,1,435.98,594.9Z" transform="translate(-365.32 -458.359)" fill="#e6e6e6"/>
    <path id="Path_129" data-name="Path 129" d="M632.98,93.9a.868.868,0,0,1-.941-1.458A.868.868,0,0,1,632.98,93.9Z" transform="translate(-514.544 -78.86)" fill="#e6e6e6"/>
    <path id="Path_130" data-name="Path 130" d="M442.98,211.9a.868.868,0,0,1-.941-1.458A.868.868,0,0,1,442.98,211.9Z" transform="translate(-370.622 -168.243)" fill="#e6e6e6"/>
    <path id="Path_131" data-name="Path 131" d="M566.4,143.658l-.6-.131.13-.6-.4-.087-.131.6-.6-.13-.087.4.6.131-.13.6.4.087.131-.6.6.131Z" transform="translate(-427.771 -108.202)" fill="#e6e6e6"/>
    <path id="Path_132" data-name="Path 132" d="M166.305,348.437l-.6-.131.13-.6-.4-.087-.131.6-.6-.131-.087.4.6.131-.13.6.4.087.131-.6.6.13Z" transform="translate(-124.704 -263.318)" fill="#e6e6e6"/>
    <path id="Path_133" data-name="Path 133" d="M807.407,463.567a2.064,2.064,0,0,1-2.738-1l-2.452-5.279a2.061,2.061,0,1,1,3.739-1.737l2.452,5.279A2.063,2.063,0,0,1,807.407,463.567Z" transform="translate(-643.604 -353.116)" fill="#3f3d56"/>
    <path id="Path_134" data-name="Path 134" d="M635.407,543.567a2.064,2.064,0,0,1-2.738-1l-2.452-5.278a2.061,2.061,0,1,1,3.739-1.737l2.452,5.279A2.064,2.064,0,0,1,635.407,543.567Z" transform="translate(-513.316 -413.714)" fill="#3f3d56"/>
    <path id="Path_135" data-name="Path 135" d="M746.045,406.051l-16.444,7.64c-1.047-1.629-4.2-9.975-3.494-12.452l.348-2.77,9.819-4.817,2.176,1.82C741.514,394.435,746.02,402.031,746.045,406.051Z" transform="translate(-586.02 -307.132)" fill="#e6e6e6"/>
    <path id="Path_136" data-name="Path 136" d="M754.2,425.313l-4.159,1.932c-.8.373-2.023-.546-2.721-2.049s-.613-3.028.189-3.4l4.158-1.932c.8-.373,2.024.546,2.721,2.049S755,424.94,754.2,425.313Z" transform="translate(-601.806 -326.924)" fill="#3f3d56"/>
    <path id="Path_137" data-name="Path 137" d="M477.981,434.436l-1.591-3.5.916-.422,1.586,3.49,22.97,50.93-.915.425" transform="translate(-360.857 -326.105)" fill="#3f3d56"/>
    <path id="Path_138" data-name="Path 138" d="M631.492,457.254l-16.444,7.64c-2.426-1.253-6.134-9.449-3.494-12.452l.348-2.77,9.819-4.817,2.176,1.82C626.151,447.367,630.543,455.207,631.492,457.254Z" transform="translate(-498.637 -345.918)" fill="#e6e6e6"/>
    <path id="Path_139" data-name="Path 139" d="M641.628,475.75l-4.158,1.932c-.8.373-1.948-.383-2.552-1.684s-.444-2.664.359-3.037l4.159-1.932c.8-.373,1.947.383,2.552,1.684S642.43,475.377,641.628,475.75Z" transform="translate(-516.746 -365.672)" fill="#3f3d56"/>
    <circle id="Ellipse_29" data-name="Ellipse 29" cx="24.979" cy="24.979" r="24.979" transform="translate(16.562 24.699)" fill="#ff6584"/>
    <path id="Path_140" data-name="Path 140" d="M737.183,210.546l15.18-44.334-16.669,43.8a.835.835,0,1,0,1.489.531Z" transform="translate(-593.223 -134.85)" fill="#f0f0f0" opacity="0.3"/>
    <path id="Path_141" data-name="Path 141" d="M331.445,169.259q-4.457,1.481-9.883,2.91c-18.709,4.926-43.786,8.768-70.613,10.819s-52.2,2.066-71.437.042c-9.373-.986-16.786-2.4-22.034-4.215-5.556-1.917-8.475-4.228-8.677-6.867-.393-5.141,9.752-9.666,18.332-12.557l.232.689c-11.783,3.97-18.118,8.165-17.839,11.812.355,4.646,11.312,8.441,30.061,10.414,19.2,2.019,44.521,2,71.305-.044s51.815-5.883,70.483-10.8c18.231-4.8,28.484-10.217,28.128-14.863-.295-3.857-7.9-7.157-21.409-9.291l.114-.719c9.817,1.551,21.606,4.537,22.021,9.955.2,2.639-2.332,5.366-7.532,8.106A76.007,76.007,0,0,1,331.445,169.259Z" transform="translate(-148.791 -119.99)" fill="#3f3d56"/>
    <circle id="Ellipse_30" data-name="Ellipse 30" cx="2.596" cy="2.596" r="2.596" transform="translate(187.399 88.381)" fill="#ff6584"/>
    <circle id="Ellipse_31" data-name="Ellipse 31" cx="2.596" cy="2.596" r="2.596" transform="translate(203.89 158.711)" fill="#f2f2f2"/>
    <circle id="Ellipse_32" data-name="Ellipse 32" cx="5.06" cy="5.06" r="5.06" transform="translate(112.906 169.585)" fill="#f2f2f2"/>
    <circle id="Ellipse_33" data-name="Ellipse 33" cx="2.596" cy="2.596" r="2.596" transform="translate(76.811 107.54)" fill="#3f3d56"/>
    <path id="Path_142" data-name="Path 142" d="M687.226,478.768l11.2,2.9,6.868,13.491-11.612.455Z" transform="translate(-520.562 -362.659)" fill="#e6e6e6"/>
    <path id="Path_143" data-name="Path 143" d="M580.645,398.574l6.163,6.167,15.654,33.844-2.882,2.49Z" transform="translate(-439.829 -301.913)" fill="#ccc"/>
    <path id="Path_144" data-name="Path 144" d="M525.386,421.624l.484,8.705,14.775,34.237,3.777-.486Z" transform="translate(-397.971 -319.373)" fill="#ccc"/>
    <path id="Path_145" data-name="Path 145" d="M504.885,566.637l-6.031,9.871,4.446,14.471,8.661-7.748Z" transform="translate(-377.873 -429.218)" fill="#e6e6e6"/>
    <path id="Path_146" data-name="Path 146" d="M347.83,437.441q-4.7,0-10.3-.355c-19.308-1.226-44.317-5.489-70.421-12s-50.184-14.5-67.8-22.49c-8.583-3.892-15.171-7.575-19.58-10.949-4.668-3.572-6.709-6.685-6.069-9.253,1.248-5,12.3-6.1,21.357-6.135l0,.728c-12.433.051-19.768,2.034-20.654,5.583-1.128,4.521,8.073,11.578,25.243,19.363,17.581,7.971,41.617,15.943,67.68,22.447s51.026,10.759,70.291,11.982c18.814,1.2,30.252-.712,31.38-5.233.937-3.753-5.238-9.282-17.386-15.569l.334-.646c8.827,4.568,19.073,11.12,17.758,16.391-.641,2.568-3.906,4.357-9.7,5.317A76,76,0,0,1,347.83,437.441Z" transform="translate(-167.541 -293.957)" fill="#3f3d56"/>
  </g>
</svg>
