<svg xmlns="http://www.w3.org/2000/svg" width="542.259" height="477.008" viewBox="0 0 542.259 477.008">
  <path id="Path_191" data-name="Path 191" d="M360.993-28.469C405.915-5.651,448.341,30,455.115,72.427c6.417,42.426-23.174,91.269-36.009,150.1S410.193,350.157,379.889,385.1s-94.478,35.652-153.3,28.165S114.637,389.731,66.15,360.853s-91.983-70.948-120.861-125.5C-83.946,180.453-98.563,112.714-73.25,65.3-47.937,18.236,18.019-8.5,73.637-27.756,129.611-47.364,175.245-58.773,221.95-59.842A291.1,291.1,0,0,1,360.993-28.469Z" transform="translate(456.014 417.085) rotate(-180)" fill="#ff6584"/>
</svg>
